<?xml version="1.0" encoding="UTF-8" standalone="no"?>
<!-- Created with Inkscape (http://www.inkscape.org/) -->

<svg
   xmlns:dc="http://purl.org/dc/elements/1.1/"
   xmlns:cc="http://creativecommons.org/ns#"
   xmlns:rdf="http://www.w3.org/1999/02/22-rdf-syntax-ns#"
   xmlns:svg="http://www.w3.org/2000/svg"
   xmlns="http://www.w3.org/2000/svg"
   xmlns:sodipodi="http://sodipodi.sourceforge.net/DTD/sodipodi-0.dtd"
   xmlns:inkscape="http://www.inkscape.org/namespaces/inkscape"
   width="32"
   height="32"
   id="svg2"
   version="1.1"
   inkscape:version="0.48.2 r9819"
   sodipodi:docname="clear.svg">
  <defs
     id="defs4">
    <inkscape:perspective
       sodipodi:type="inkscape:persp3d"
       inkscape:vp_x="0 : 16 : 1"
       inkscape:vp_y="0 : 1000 : 0"
       inkscape:vp_z="32 : 16 : 1"
       inkscape:persp3d-origin="16 : 10.666667 : 1"
       id="perspective3156" />
  </defs>
  <sodipodi:namedview
     id="base"
     pagecolor="#ffffff"
     bordercolor="#666666"
     borderopacity="1.0"
     inkscape:pageopacity="0.0"
     inkscape:pageshadow="2"
     inkscape:zoom="1.979899"
     inkscape:cx="62.68391"
     inkscape:cy="28.05901"
     inkscape:document-units="px"
     inkscape:current-layer="layer1"
     showgrid="false"
     inkscape:window-width="1680"
     inkscape:window-height="1001"
     inkscape:window-x="0"
     inkscape:window-y="25"
     inkscape:window-maximized="1" />
  <metadata
     id="metadata7">
    <rdf:RDF>
      <cc:Work
         rdf:about="">
        <dc:format>image/svg+xml</dc:format>
        <dc:type
           rdf:resource="http://purl.org/dc/dcmitype/StillImage" />
        <dc:title></dc:title>
      </cc:Work>
    </rdf:RDF>
  </metadata>
  <g
     inkscape:label="Layer 1"
     inkscape:groupmode="layer"
     id="layer1"
     transform="translate(0,-1020.3622)">
    <path
       style="fill:none;stroke:#999999;stroke-width:3;stroke-linecap:round;stroke-linejoin:round;stroke-miterlimit:4;stroke-opacity:1;stroke-dasharray:none"
       d="m 2,1046.1753 c 3.94713,0.06 5.16907,0.4252 7.054,-1.5996 2.67336,-2.8718 4.04423,-1.1706 4.44528,-5.5103 0.16744,-1.8119 1.33458,-16.7032 1.33458,-16.7032 0,0 1.00033,7.4274 1.48646,11.2312 0.63287,3.8156 1.50087,20.2801 5.51779,16.092 1.9178,-3.9723 5.29809,-4.7445 8.16189,-4.7089"
       id="path3773"
       inkscape:connector-curvature="0"
       sodipodi:nodetypes="csscccc" />
    <path
       style="fill:none;stroke:#aa0000;stroke-width:2.74500000000000011;stroke-linecap:round;stroke-linejoin:round;stroke-miterlimit:4;stroke-opacity:1;stroke-dasharray:none;opacity:0.5"
       d="m 29.34837,1036.3622 -26.69675,0"
       id="path3778"
       inkscape:connector-curvature="0" />
    <path
       id="path3102"
       style="fill:#ffff00;stroke:#000000;stroke-width:1px;stroke-linecap:butt;stroke-linejoin:miter;stroke-opacity:1"
       d="m -47.529681,1080.363 c -0.245813,3.6305 -2.423203,8.9194 -5.050726,11.3015 m 2.746315,-12.0591 c -1.346359,2.1046 -8.168992,7.9555 -7.860215,9.9459 m 4.166845,-11.7768 c -2.319403,1.971 -4.787206,4.2933 -6.274082,6.9932 -0.409683,0.6113 -2.22018,1.7749 -1.838689,2.6623 m 7.986501,-13.9486 c 0.802761,0.4706 1.437191,1.1631 2.12905,1.7711 1.364102,0.9192 2.941052,1.4345 4.448041,2.0611 1.26505,0.3719 0.788516,0.4591 2.072263,0.774 m -10.480255,-2.144 c 0.802761,0.4706 1.437191,1.1631 2.12905,1.7711 1.364102,0.9192 2.941052,1.4345 4.44804,2.0611 1.26505,0.3719 2.430014,1.0273 3.713762,1.3422 m -0.05628,-15.304 c 1.353437,-0.2547 3.195874,0.6825 3.618969,1.9931 0.831208,2.5748 -2.30725,3.7523 -3.478076,7.3339 0.216582,3.5813 0.156714,11.5848 -1.191846,15.6906 -0.860802,2.6208 -5.52811,1.1196 -8.248843,0.6646 -2.958577,-0.4948 -6.220255,-1.3904 -8.2466,-3.6022 -0.946477,-1.0331 -1.670662,-2.6226 -1.339689,-3.9841 0.931177,-3.8304 5.46547,-5.7049 8.494328,-8.2278 1.676087,-1.3961 2.534089,-2.8641 5.327761,-3.8 1.992471,-1.9614 2.474905,-5.581 5.063996,-6.0681 z"
       inkscape:connector-curvature="0" />
    <path
       inkscape:connector-curvature="0"
       d="m -14.584077,1039.9879 c -0.245813,3.6305 -2.423203,8.9194 -5.050726,11.3015 m 2.746315,-12.0591 c -1.346359,2.1046 -8.168992,7.9555 -7.860215,9.9459 m 4.166845,-11.7768 c -2.319403,1.971 -4.787206,4.2933 -6.274082,6.9932 -0.409683,0.6113 -2.22018,1.7749 -1.838689,2.6623 m 7.986501,-13.9486 c 0.802761,0.4706 1.437191,1.1631 2.12905,1.7711 1.364102,0.9192 2.941052,1.4345 4.448041,2.0611 1.26505,0.3719 0.788516,0.4591 2.072263,0.774 m -10.480255,-2.144 c 0.802761,0.4706 1.437191,1.1631 2.12905,1.7711 1.364102,0.9192 2.941052,1.4345 4.44804,2.0611 1.26505,0.3719 2.430014,1.0273 3.713762,1.3422 m -0.05628,-15.304 c 1.353437,-0.2547 3.1958737,0.6825 3.6189687,1.9931 0.831208,2.5748 -2.3072497,3.7523 -3.4780757,7.3339 0.216582,3.5813 0.156714,11.5848 -1.191846,15.6906 -0.860802,2.6208 -5.52811,1.1196 -8.248843,0.6646 -2.958577,-0.4948 -6.220255,-1.3904 -8.2466,-3.6022 -0.946477,-1.0331 -1.670662,-2.6226 -1.339689,-3.9841 0.931177,-3.8304 5.46547,-5.7049 8.494328,-8.2278 1.676087,-1.3961 2.534089,-2.8641 5.327761,-3.8 1.992471,-1.9614 2.474905,-5.581 5.063996,-6.0681 z"
       style="fill:#aa0000;stroke:#000000;stroke-width:1px;stroke-linecap:butt;stroke-linejoin:miter;stroke-opacity:1"
       id="path3150" />
    <path
       id="path3252"
       style="fill:#aa0000"
       d="m 25.463108,1035.4531 c -0.245813,3.6305 -2.423203,8.9194 -5.050726,11.3015 m 2.746315,-12.0591 c -1.346359,2.1046 -8.168992,7.9555 -7.860215,9.9459 m 4.166845,-11.7768 c -2.319403,1.971 -4.787206,4.2933 -6.274082,6.9932 -0.409683,0.6113 -2.22018,1.7749 -1.838689,2.6623 m 7.986501,-13.9486 c 0.802761,0.4706 1.437191,1.1631 2.12905,1.7711 1.364102,0.9192 2.941052,1.4345 4.448041,2.0611 1.26505,0.3719 0.788516,0.4591 2.072263,0.774 m -10.480255,-2.144 c 0.802761,0.4706 1.437191,1.1631 2.12905,1.7711 1.364102,0.9192 2.941052,1.4345 4.44804,2.0611 1.26505,0.3719 2.430014,1.0273 3.713762,1.3422 m -0.05628,-15.304 c 1.353437,-0.2547 3.195874,0.6825 3.618969,1.9931 0.831208,2.5748 -2.30725,3.7523 -3.478076,7.3339 0.216582,3.5813 0.156714,11.5848 -1.191846,15.6906 -0.860802,2.6208 -5.52811,1.1196 -8.248843,0.6646 -2.958577,-0.4948 -6.220255,-1.3904 -8.2466,-3.6022 -0.946477,-1.0331 -1.670662,-2.6226 -1.339689,-3.9841 0.931177,-3.8304 5.46547,-5.7049 8.494328,-8.2278 1.676087,-1.3961 2.534089,-2.8641 5.327761,-3.8 1.992471,-1.9614 2.474905,-5.581 5.063996,-6.0681 z"
       inkscape:connector-curvature="0" />
    <path
       id="path3152"
       style="fill:#333333;stroke:none"
       d="m 28.37713,1030.3543 c 1.170826,-3.5816 4.153034,-4.6252 3.321825,-7.2 -0.423095,-1.3106 -2.377138,-2.5157 -3.730575,-2.261 -2.589091,0.4871 -3.116168,4.0621 -5.108639,6.0235 -1.678158,1.147 -1.134522,0.1493 -3.11773,2.0223 0.988947,0.3594 1.014353,0.9187 1.706212,1.5267 1.364102,0.9192 2.985695,1.5014 4.492684,2.128 1.064157,0.5059 0.69923,0.4145 2.165805,1.2551 0.363514,0.175 0.188964,-2.7334 0.270418,-3.4946 z"
       inkscape:connector-curvature="0"
       sodipodi:nodetypes="csccccccc" />
    <path
       id="path3154"
       style="fill:none;stroke:#000000;stroke-width:1px;stroke-linecap:butt;stroke-linejoin:miter;stroke-opacity:1"
       d="m 25.463108,1035.4531 c -0.245813,3.6305 -2.423203,8.9194 -5.050726,11.3015 m 2.746315,-12.0591 c -1.346359,2.1046 -8.168992,7.9555 -7.860215,9.9459 m 4.166845,-11.7768 c -2.319403,1.971 -4.787206,4.2933 -6.274082,6.9932 -0.409683,0.6113 -2.22018,1.7749 -1.838689,2.6623 m 7.986501,-13.9486 c 0.802761,0.4706 1.437191,1.1631 2.12905,1.7711 1.364102,0.9192 2.941052,1.4345 4.448041,2.0611 1.26505,0.3719 0.788516,0.4591 2.072263,0.774 m -10.480255,-2.144 c 0.802761,0.4706 1.437191,1.1631 2.12905,1.7711 1.364102,0.9192 2.941052,1.4345 4.44804,2.0611 1.26505,0.3719 2.430014,1.0273 3.713762,1.3422 m -0.05628,-15.304 c 1.353437,-0.2547 3.195874,0.6825 3.618969,1.9931 0.831208,2.5748 -2.30725,3.7523 -3.478076,7.3339 0.216582,3.5813 0.156714,11.5848 -1.191846,15.6906 -0.860802,2.6208 -5.52811,1.1196 -8.248843,0.6646 -2.958577,-0.4948 -6.220255,-1.3904 -8.2466,-3.6022 -0.946477,-1.0331 -1.670662,-2.6226 -1.339689,-3.9841 0.931177,-3.8304 5.46547,-5.7049 8.494328,-8.2278 1.676087,-1.3961 2.534089,-2.8641 5.327761,-3.8 1.992471,-1.9614 2.474905,-5.581 5.063996,-6.0681 z"
       inkscape:connector-curvature="0" />
    <path
       style="fill:#ff8080;stroke:none"
       d="m 21.106825,1035.7056 c -2.029679,2.1249 -3.469074,5.1329 -6.168051,6.2949 -2.575409,1.1088 2.475305,-2.5141 3.26121,-4.1133 0.856015,-0.9323 1.550616,-2.4435 2.906841,-2.1816 z"
       id="path3254"
       inkscape:connector-curvature="0"
       sodipodi:nodetypes="cscc" />
    <path
       sodipodi:nodetypes="cscc"
       inkscape:connector-curvature="0"
       id="path3277"
       d="m 18.076367,1033.117 c -2.440053,1.6514 -3.816313,4.7226 -5.82081,6.3581 -2.172549,1.7726 1.370451,-3.0192 2.7877,-4.6184 0.856016,-0.9323 1.676885,-2.0016 3.03311,-1.7397 z"
       style="fill:#ff8080;stroke:none" />
    <path
       sodipodi:nodetypes="csscccc"
       inkscape:connector-curvature="0"
       id="path3296"
       d="m -108.10663,1047.0592 c 3.94713,0.06 5.16907,0.4252 7.054,-1.5996 2.673362,-2.8718 4.044232,-1.1706 4.445282,-5.5103 0.16744,-1.8119 1.33458,-16.7032 1.33458,-16.7032 0,0 1.00033,7.4274 1.48646,11.2312 0.63287,3.8156 1.50087,20.2801 5.51779,16.092 1.9178,-3.9723 5.29809,-4.7445 8.16189,-4.7089"
       style="fill:none;stroke:#333333;stroke-width:3;stroke-linecap:round;stroke-linejoin:round;stroke-miterlimit:4;stroke-opacity:1;stroke-dasharray:none" />
    <path
       inkscape:connector-curvature="0"
       id="path3298"
       d="m -80.758258,1037.2461 -26.696752,0"
       style="fill:none;stroke:#aa0000;stroke-width:2.74457383;stroke-linecap:round;stroke-linejoin:round;stroke-miterlimit:4;stroke-opacity:1;stroke-dasharray:none" />
    <path
       sodipodi:nodetypes="csscccc"
       inkscape:connector-curvature="0"
       id="path4094"
       d="m 47,1047.2467 c 3.94713,0.06 5.16907,0.4252 7.054,-1.5996 2.67336,-2.8718 4.04423,-1.1706 4.44528,-5.5103 0.16744,-1.8119 1.33458,-16.7032 1.33458,-16.7032 0,0 1.00033,7.4274 1.48646,11.2312 0.63287,3.8156 1.50087,20.2801 5.51779,16.092 1.9178,-3.9723 5.29809,-4.7445 8.16189,-4.7089"
       style="fill:none;stroke:#999999;stroke-width:3;stroke-linecap:round;stroke-linejoin:round;stroke-miterlimit:4;stroke-opacity:1;stroke-dasharray:none" />
    <path
       inkscape:connector-curvature="0"
       id="path4096"
       d="m 74.34837,1037.4336 -26.69675,0"
       style="opacity:0.5;fill:none;stroke:#aa0000;stroke-width:2.74499989;stroke-linecap:round;stroke-linejoin:round;stroke-miterlimit:4;stroke-opacity:1;stroke-dasharray:none" />
    <g
       id="g4113"
       transform="translate(-25.75889,2.5253814)">
      <rect
         transform="matrix(-0.85943125,0.51125134,0,1,0,0)"
         y="1086.9579"
         x="-122.22026"
         height="5.2657852"
         width="16.766129"
         id="rect3246"
         style="fill:#4d4d4d;fill-opacity:1;stroke:none" />
      <rect
         ry="0"
         transform="matrix(-0.86269255,-0.50572875,0,1,0,0)"
         style="fill:#4d4d4d;fill-opacity:1;stroke:none"
         id="rect3250"
         width="11.101641"
         height="5.2684302"
         x="-105.03404"
         y="979.89349" />
      <rect
         transform="matrix(-0.85943125,0.51125134,0.86151846,0.50772625,0,0)"
         y="1054.2622"
         x="945.76398"
         height="11.138994"
         width="16.749069"
         id="rect3242"
         style="fill:#aa0000;fill-opacity:1;stroke:none" />
    </g>
    <path
       style="fill:#ff8080;stroke:none"
       d="m 27.234652,1035.3045 c -1.903937,-0.9247 -1.94468,-0.2807 -4.085256,-2.0643 -2.154158,-1.7948 -0.295363,-0.3341 1.777346,0.2624 1.121703,0.8875 2.443541,0.6035 2.30791,1.8019 z"
       id="path4123"
       inkscape:connector-curvature="0"
       sodipodi:nodetypes="cscc" />
  </g>
</svg>
