<?xml version="1.0" encoding="UTF-8" standalone="no"?>
<!-- Created with Inkscape (http://www.inkscape.org/) -->

<svg
   xmlns:dc="http://purl.org/dc/elements/1.1/"
   xmlns:cc="http://creativecommons.org/ns#"
   xmlns:rdf="http://www.w3.org/1999/02/22-rdf-syntax-ns#"
   xmlns:svg="http://www.w3.org/2000/svg"
   xmlns="http://www.w3.org/2000/svg"
   xmlns:xlink="http://www.w3.org/1999/xlink"
   xmlns:sodipodi="http://sodipodi.sourceforge.net/DTD/sodipodi-0.dtd"
   xmlns:inkscape="http://www.inkscape.org/namespaces/inkscape"
   width="128"
   height="128"
   id="svg2"
   version="1.1"
   inkscape:version="0.48.3.1 r9886"
   sodipodi:docname="roimanager.svg">
  <defs
     id="defs4">
    <linearGradient
       y2="1742.4102"
       y1="1632.9742"
       xlink:href="#linearGradient879"
       x2="289.33801"
       x1="239.50841"
       id="linearGradient878"
       gradientUnits="userSpaceOnUse"
       gradientTransform="matrix(0.73964,0,0,0.31981,-11.669289,-39.523791)" />
    <linearGradient
       y2="1690.0869"
       y1="1591.2252"
       xlink:href="#linearGradient875"
       x2="483.33511"
       x1="426.94217"
       id="linearGradient874"
       gradientUnits="userSpaceOnUse"
       gradientTransform="matrix(0.795803,0,0,0.29724,-11.669289,-39.523791)" />
    <radialGradient
       xlink:href="#linearGradient868"
       r="56.314198"
       id="radialGradient867"
       gradientUnits="userSpaceOnUse"
       gradientTransform="matrix(0.46663,0,0,0.50692,-11.669289,-39.523791)"
       fy="821.33179"
       fx="1216.2439"
       cy="821.33179"
       cx="1216.2439" />
    <linearGradient
       y2="813.422"
       y1="911.724"
       xlink:href="#linearGradient858"
       x2="1136.2676"
       x1="1151.4917"
       id="linearGradient1884"
       gradientUnits="userSpaceOnUse"
       gradientTransform="matrix(0.462453,0,0,0.511499,-11.669289,-39.523791)" />
    <linearGradient
       id="linearGradient1881">
      <stop
         style="stop-color:#000;stop-opacity:1;"
         offset="0"
         id="stop1882" />
      <stop
         style="stop-color:#fff;stop-opacity:1;"
         offset="1"
         id="stop1883" />
    </linearGradient>
    <linearGradient
       id="linearGradient1885">
      <stop
         style="stop-color:#8a1e1e;stop-opacity:1.0000000;"
         offset="0.0000000"
         id="stop1886" />
      <stop
         style="stop-color:#fff;stop-opacity:1;"
         offset="1"
         id="stop1887" />
    </linearGradient>
    <linearGradient
       id="linearGradient850">
      <stop
         style="stop-color:#000000;stop-opacity:1.0000000;"
         offset="0.0000000"
         id="stop851" />
      <stop
         style="stop-color:#000000;stop-opacity:1.0000000;"
         offset="0.0099999998"
         id="stop853" />
      <stop
         style="stop-color:#ffecd5;stop-opacity:1.0000000;"
         offset="1.0000000"
         id="stop852" />
    </linearGradient>
    <linearGradient
       id="linearGradient858">
      <stop
         style="stop-color:#fff48f;stop-opacity:1.0000000;"
         offset="0.0000000"
         id="stop859" />
      <stop
         style="stop-color:#fffde5;stop-opacity:1.0000000;"
         offset="1.0000000"
         id="stop861" />
    </linearGradient>
    <linearGradient
       id="linearGradient868">
      <stop
         style="stop-color:#ffe8da;stop-opacity:1.0000000;"
         offset="0.0000000"
         id="stop869" />
      <stop
         style="stop-color:#ffc5a5;stop-opacity:1.0000000;"
         offset="1.0000000"
         id="stop870" />
    </linearGradient>
    <linearGradient
       id="linearGradient875">
      <stop
         style="stop-color:#efc65c;stop-opacity:1.0000000;"
         offset="0.0000000"
         id="stop876" />
      <stop
         style="stop-color:#af9143;stop-opacity:1.0000000;"
         offset="1.0000000"
         id="stop877" />
    </linearGradient>
    <linearGradient
       id="linearGradient879">
      <stop
         style="stop-color:#ffecd5;stop-opacity:1.0000000;"
         offset="0.0000000"
         id="stop880" />
      <stop
         style="stop-color:#af9143;stop-opacity:1.0000000;"
         offset="1.0000000"
         id="stop881" />
    </linearGradient>
  </defs>
  <sodipodi:namedview
     id="base"
     pagecolor="#ffffff"
     bordercolor="#666666"
     borderopacity="1.0"
     inkscape:pageopacity="0.0"
     inkscape:pageshadow="2"
     inkscape:zoom="1.4"
     inkscape:cx="21.202839"
     inkscape:cy="93.23309"
     inkscape:document-units="px"
     inkscape:current-layer="layer2"
     showgrid="false"
     inkscape:window-width="1680"
     inkscape:window-height="996"
     inkscape:window-x="0"
     inkscape:window-y="27"
     inkscape:window-maximized="1" />
  <metadata
     id="metadata7">
    <rdf:RDF>
      <cc:Work
         rdf:about="">
        <dc:format>image/svg+xml</dc:format>
        <dc:type
           rdf:resource="http://purl.org/dc/dcmitype/StillImage" />
      </cc:Work>
    </rdf:RDF>
  </metadata>
  <g
     inkscape:label="Brain"
     inkscape:groupmode="layer"
     id="layer1"
     transform="translate(0,-924.36218)"
     style="display:inline">
    <path
       id="180630153"
       parent_id="180630150"
       order="0"
       structure_id="8"
       d="m 34.358475,1048.5902 c 6.014479,-0.094 9.06362,-1.0312 14.209338,-1.9139 2.563009,-0.4396 4.921098,-0.2067 6.517758,-0.8191 1.372864,-0.5265 2.938048,-0.635 4.627426,-1.8304 1.72963,-1.2244 4.263435,-1.4647 5.961427,-1.0443 1.111836,0.2754 2.220894,0.924 3.273339,1.7838 1.358495,1.1097 2.644397,2.5228 3.950684,3.4344 3.779055,2.6375 6.914695,2.8013 10.51936,3.5973 7.887523,1.742 13.457589,-1.3369 18.336563,-7.0889 6.76116,-7.971 12.57889,-19.8445 16.45273,-27.613 4.25691,-8.5374 6.98387,-11.8259 8.51822,-18.47154 1.54124,-6.67638 1.40778,-13.8188 0.72812,-20.50655 -0.7095,-6.97805 -4.13686,-13.59149 -7.90611,-19.52617 -4.02835,-6.3424 -14.17932,-18.3294 -26.158966,-23.77072 -9.287475,-4.21854 -15.685647,-5.95227 -17.911733,-6.64674 -3.084723,-0.96241 -7.400042,-2.14535 -10.85119,-2.6026 -3.026801,-0.40094 -6.235034,-0.68892 -9.548001,-0.83831 -1.481844,-0.0669 -6.935906,-0.35813 -8.115766,-0.2793 -2.537529,0.1697 -5.077695,0.92328 -7.188602,1.85696 -1.190627,0.52651 -2.712602,2.2497 -5.068558,3.89462 l -0.05827,28.49956 -0.287776,89.88489 z"
       style="fill:#bfdae3;stroke:#000000;stroke-width:0.02013060000000000;opacity:0.6"
       inkscape:connector-curvature="0" />
    <path
       id="180630154"
       parent_id="180630150"
       order="1"
       structure_id="688"
       d="m 69.71338,1045.4267 c 1.069249,0.9391 2.142403,2.0463 3.185047,2.7741 3.778914,2.6376 6.914695,2.8012 10.51936,3.5973 7.887522,1.7419 13.457589,-1.3371 18.336563,-7.089 6.76132,-7.9712 12.57889,-19.8445 16.45273,-27.613 4.25691,-8.5374 6.98387,-11.8259 8.51822,-18.47152 1.54124,-6.67638 1.40778,-13.8188 0.72812,-20.50655 -0.7095,-6.97805 -4.13686,-13.59149 -7.90611,-19.52617 -4.02835,-6.3424 -14.17932,-18.3294 -26.158966,-23.77072 -9.287475,-4.21854 -15.685648,-5.95227 -17.911733,-6.64674 -3.084723,-0.96241 -7.400042,-2.14535 -10.85119,-2.6026 -3.026801,-0.40094 -6.235034,-0.68892 -9.548001,-0.83831 -1.481844,-0.0669 -6.935906,-0.35813 -8.115766,-0.2793 -2.537529,0.1697 -5.077695,0.92328 -7.188602,1.85696 -1.190627,0.52651 -2.712602,2.2497 -5.068558,3.89462 l -0.05826,28.49956 c 0,0 2.141418,0.58207 4.418261,0.39021 2.882581,-0.24287 5.786053,-2.14957 6.523472,-2.74697 2.689277,-2.17865 2.522859,-5.8183 7.116835,-5.76279 2.615516,0.0316 7.324008,1.33354 9.725489,1.99838 2.7542,0.7625 4.715334,1.397 7.677692,2.41163 3.52505,1.20723 6.696091,2.1774 10.470597,4.2638 4.878472,2.6967 10.890977,7.35818 13.376321,10.30768 5.18587,6.15415 9.212249,13.52533 10.724099,17.55043 0.74541,1.98432 1.39358,6.319 1.35133,9.35051 -0.0308,2.19765 -0.38763,3.89639 -0.83774,5.55769 -0.67395,2.4887 -1.32798,4.9177 -2.87932,8.7221 -0.62197,1.5255 -1.35437,3.0086 -2.229,4.4057 -1.397954,2.2329 -2.76313,4.4986 -4.200779,6.7001 -1.169756,1.7912 -2.481579,3.3598 -3.873905,4.9814 -0.880532,1.0255 -1.567277,2.2164 -2.438995,3.26 -1.757543,2.104 -3.391436,4.7181 -5.948385,5.9668 -1.519841,0.742 -3.423074,0.5512 -5.02074,0.2036 -1.424406,-0.3097 -3.505628,-0.5048 -4.649121,0.5973 -1.149189,1.1076 -1.655748,2.9453 -2.317959,4.361 -0.197211,0.4213 -1.567961,3.013 -1.921003,4.2028 z"
       style="fill:#1f9d5a;stroke:#000000;stroke-width:0.02013060000000000;opacity:0.6"
       inkscape:connector-curvature="0" />
    <path
       id="180630189"
       parent_id="180630150"
       order="70"
       structure_id="672"
       d="m 100.17365,1013.9277 c 1.51316,-3.3066 2.3636,-5.7592 3.32452,-8.624 0.75847,-2.261 2.27703,-7.4116 1.91207,-11.14274 -0.24473,-2.50247 -0.19743,-3.89832 -1.56603,-7.21338 -1.56163,-3.78263 -1.93684,-4.37054 -3.6967,-6.96812 -2.703124,-3.98949 -4.126725,-5.9076 -6.323609,-8.44281 -1.380693,-1.59344 -2.832188,-2.69064 -6.207966,-5.13141 -3.162849,-2.28678 -4.570792,-3.24065 -7.795971,-4.84277 -3.086694,-1.30834 -5.323568,-2.17193 -7.676244,-2.91446 -1.825105,-0.57595 -7.234952,-2.20475 -11.686159,-2.75859 -0.513423,-0.0639 -1.850382,-0.25499 -2.484357,-0.11819 0,0 2.360042,0.24007 4.325926,0.9695 2.201472,0.81654 5.038047,2.40883 5.328921,3.66559 0.164929,0.71297 -0.04862,1.02666 -0.370189,1.61161 -0.38305,0.69637 -1.168912,1.52659 -1.625238,2.34505 -0.501026,0.89863 -0.841651,1.43711 -1.092234,2.16293 -0.169517,0.49083 -0.457937,1.79023 -0.257929,2.5349 0.495813,1.84555 1.440405,4.31391 1.820356,5.91487 0.281757,1.18826 0.680807,2.81001 0.177507,3.54198 -0.270186,0.39299 -0.170323,0.66074 0.333299,0.94201 0.287453,0.16069 0.492553,0.20531 1.089799,0.68214 0.479309,0.38261 1.248065,0.84288 1.742871,1.25839 0.494484,0.41551 0.868578,0.86516 0.942822,1.2439 0.05497,0.27946 3.970266,3.75848 4.161801,3.81015 0.786687,0.21184 2.699036,1.20648 4.628533,2.52833 0.941513,0.6448 3.597662,2.48544 4.973122,4.9482 1.436803,2.57271 2.293627,9.44872 1.909753,12.21372 -0.381761,2.7488 -1.453285,5.4953 -1.964897,6.6043 -0.716047,1.5522 -2.432977,4.0076 -3.416069,5.3665 -0.28844,0.3988 0.739875,0.835 1.166154,1.135 1.8339,1.2907 5.136079,1.964 7.302151,2.2847 3.465014,0.5131 6.065195,-0.971 7.986218,-3.1198 1.382846,-1.5467 1.919413,-2.0437 3.037769,-4.4875 z"
       style="fill:#98d6f9;stroke:#000000;stroke-width:0.02013060000000000;opacity:0.6"
       inkscape:connector-curvature="0" />
    <path
       id="180630192"
       parent_id="180630150"
       order="71"
       structure_id="310"
       d="m 43.154545,964.77193 c 0.240139,-0.36139 0.232792,-0.81267 -0.13003,-1.37314 -0.745411,-1.15133 -2.235084,-0.26278 -3.405303,0.0272 -1.226189,0.30386 -2.17374,0.66418 -3.260439,0.95437 -0.697772,0.18623 -1.143634,0.32737 -1.755431,0.40577 -0.04585,0.006 0.02186,1.19152 -0.0026,1.18628 1.017065,0.22394 7.441178,0.4737 8.553819,-1.20044 z"
       style="fill:#90cbed;stroke:#000000;stroke-width:0.02013060000000000;opacity:0.6"
       inkscape:connector-curvature="0" />
    <path
       id="180630193"
       parent_id="180630150"
       order="72"
       structure_id="278"
       d="m 65.47653,1042.7982 c 0.134599,-1.2123 0.875602,-2.7136 1.319833,-3.852 0.97464,-2.4983 2.330679,-4.8837 2.609659,-6.9077 0.572954,-4.1587 0.867914,-8.178 5.332524,-9.7495 1.656071,-0.5828 2.516015,-1.1444 3.93225,-2.1679 0.675272,-0.4878 1.635844,-1.3933 1.966547,-1.2096 0.833982,0.4635 1.609419,1.2692 2.751584,1.6845 1.62705,0.5916 2.816349,0.7969 4.382035,1.1026 1.961818,0.383 3.437625,0.4109 5.094983,0.1407 0.338854,-0.055 2.409229,-0.6558 2.644014,-0.043 0.221461,0.5785 -0.471321,1.2101 -0.490823,1.2666 -0.347648,1.0083 -2.762271,2.8381 -2.762271,2.8381 0,0 -1.933984,2.4854 -2.970952,3.7267 -1.757544,2.104 -3.290607,4.7694 -5.847738,6.018 -3.096798,1.5124 -6.393925,-1.5538 -9.294801,0.4313 -1.483454,1.0151 -2.174384,3.3565 -2.905746,4.9201 -0.196748,0.4208 -1.281172,2.7359 -1.873548,4.126 -0.503319,-0.508 -1.642868,-1.2545 -1.905043,-1.3857 -0.642126,-0.3215 -1.426197,-0.7145 -1.982689,-0.8838 0.0033,-0.036 -0.0037,-0.02 2.02e-4,-0.056 z"
       style="fill:#80c0e2;stroke:#000000;stroke-width:0.02013060000000000;opacity:0.6"
       inkscape:connector-curvature="0" />
    <path
       id="180630190"
       parent_id="180630150"
       order="79"
       structure_id="1022"
       d="m 74.546689,986.77756 c 1.199282,0.4765 2.785516,1.35785 4.478779,2.49788 1.0004,0.67353 2.864328,1.97875 4.442412,4.31603 1.524087,2.25772 2.519094,9.75883 2.135058,12.52383 -0.381761,2.7488 -1.13989,4.7713 -1.687708,5.8626 -1.011812,2.0159 -1.302866,2.8321 -2.224959,3.919 -0.312912,0.3688 -1.169093,-0.087 -2.170479,-0.4674 -2.357265,-0.8949 -5.153548,-1.9183 -7.425159,-3.0394 -1.956081,-0.9653 -2.825646,-1.6825 -3.918543,-2.5262 -0.708379,-0.5469 -0.739211,-2.7603 -1.080843,-5.2958 -0.09413,-0.6978 -0.11059,-2.1114 0.583742,-4.441 0.367874,-1.23418 0.769701,-2.5038 1.474336,-4.24271 0.701034,-1.73031 0.583722,-1.93292 1.143957,-3.04878 0.312428,-0.62246 0.454535,-0.85827 1.236976,-1.86185 0.753883,-0.96665 1.5037,-1.38128 2.315,-2.74788 0.370472,-0.62401 0.599521,-1.48712 0.697431,-1.44832 z"
       style="fill:#8599cc;stroke:#000000;stroke-width:0.02013060000000000;opacity:0.6"
       inkscape:connector-curvature="0" />
    <path
       id="180630191"
       parent_id="180630150"
       order="80"
       structure_id="342"
       d="m 69.970161,1011.7807 c -0.866626,-0.5527 -1.691955,-1.1872 -2.417138,-1.8747 -0.06069,-0.058 -1.085733,-0.059 -1.753136,-0.3405 -0.730879,-0.3084 -1.478905,-1.0106 -2.295117,-0.6949 -0.908225,0.3513 -1.661947,1.0061 -2.4142,1.6076 -0.704615,0.5633 -1.538114,0.9108 -2.10634,1.6438 -0.427606,0.5514 0.01566,1.1612 0.314543,1.6552 0.383875,0.6343 0.762537,1.2719 1.144137,1.9076 1.63665,2.7259 3.414258,5.2826 5.563847,7.6262 0.960593,1.0473 1.279362,1.7799 2.498868,2.3963 2.502148,1.2648 1.882866,-0.6957 2.677522,-1.5428 0.51292,-0.547 1.231563,-1.2162 2.67867,-1.962 1.212986,-0.6251 3.275613,-1.3424 4.14075,-2.0414 0.500522,-0.4044 3.859979,-3.5351 2.767584,-3.8058 -1.711215,-0.4241 -5.073629,-1.9208 -6.347938,-2.4517 -0.921589,-0.3838 -1.866685,-0.7384 -2.764465,-1.1762 -0.56907,-0.2774 -1.13665,-0.5956 -1.687587,-0.9467 z"
       style="fill:#a2b1d8;stroke:#000000;stroke-width:0.02013060000000000;opacity:0.6"
       inkscape:connector-curvature="0" />
    <path
       id="180630173"
       parent_id="180630150"
       order="81"
       structure_id="549"
       d="m 34.560294,979.52104 c 0.963188,0.0927 2.184829,0.0936 3.177542,0.0651 0.882766,-0.0254 1.573033,0.0466 2.561377,0.0774 0.429218,0.0134 0.558102,-0.71774 0.935456,-0.96118 0.711479,-0.45898 0.934489,-0.5143 1.728341,-0.65158 0.525015,-0.0908 1.281514,-0.24622 2.075186,-0.32923 0.588148,-0.0614 1.228,-0.0358 1.643351,-0.16282 0.09969,-0.0304 0.607872,-0.4232 1.213953,-0.94644 0.443103,-0.38243 0.917523,-0.92457 1.479046,-1.15509 0.282079,-0.1159 0.598735,-0.0414 0.918992,-0.0533 1.255734,-0.0459 2.787469,0.0468 4.300628,0.36205 1.706324,0.35536 3.198593,1.21076 4.713543,2.05341 0.633169,0.3524 1.404843,0.76268 2.293809,1.08258 0.860769,0.30983 1.841245,0.52946 2.336394,0.84509 0.339839,0.21659 -0.24358,0.68262 -0.546872,1.35344 -0.504426,1.11622 -0.604269,1.94028 -0.732348,2.88975 -0.06967,0.51748 -0.0349,1.09811 0.134599,1.55111 0.201498,0.53854 0.76938,0.9417 1.180203,1.07929 1.702057,0.5703 3.120929,1.52059 3.209198,2.92306 0.06118,0.97476 -0.467737,2.22621 -1.057496,3.94277 -1.12391,3.27153 -2.159873,6.55375 -2.938389,9.88245 -0.161508,0.6901 -0.328409,1.2593 -0.437389,1.9685 -0.142106,0.9217 0.03003,1.5757 0.300193,2.0965 0.227257,0.4386 0.735447,0.8125 0.540169,0.9377 -1.01004,0.6478 -2.176014,0.9603 -3.306103,1.3231 -1.041034,0.334 -2.170621,0.8354 -3.264021,0.4337 -1.006921,-0.3698 -1.542039,-1.2396 -2.19624,-2.0264 -1.1766,-1.4149 -2.802321,-3.3507 -4.70165,-1.8268 -1.641398,1.3169 -2.631836,3.3065 -4.072886,4.8214 -1.415591,1.4879 -2.814235,3.1826 -4.613539,4.2184 -1.084244,0.6242 -3.796523,0.1362 -5.031527,0.3228 -0.333138,0.05 -1.005452,1.0589 -1.951695,0.9443"
       style="fill:#ff909f;stroke:#000000;stroke-width:0.02013060000000000;opacity:0.6"
       inkscape:connector-curvature="0" />
    <path
       id="180630156"
       parent_id="180630150"
       order="97"
       structure_id="1097"
       d="m 67.817976,1025.5804 c -0.749154,-0.5073 -1.41869,-1.2663 -2.021349,-1.935 -2.338347,-2.5949 -3.860321,-4.6153 -5.449011,-7.5179 -0.488306,-0.892 -1.12683,-1.6971 -1.662752,-2.5592 -0.311947,-0.5017 -0.540352,-0.923 -0.213412,-1.4716 0.562207,-0.9432 1.654783,-1.1732 3.482806,-2.6284 -3.010338,1.0809 -3.678084,1.5126 -5.098243,0.9909 -1.006921,-0.3698 -1.927866,-1.7354 -2.582087,-2.5223 -1.176599,-1.4148 -2.706886,-2.6902 -4.298514,-1.1023 -1.490316,1.4868 -2.498526,3.1676 -3.939595,4.6825 -1.415611,1.4879 -2.773763,2.8111 -4.438971,4.0523 -1.26958,0.9463 -3.758847,0.031 -5.124023,0.2922 -0.331025,0.063 -0.925695,1.1569 -2.016802,1.1223 l -0.0011,0.3551 c 0.995249,0.05 0.469086,5.6983 0.407159,6.6348 -0.09886,1.4975 -0.0478,2.9621 -0.05122,4.4165 -0.0072,3.0464 -0.08352,6.2826 -0.166418,9.3317 -0.03113,1.1442 0.04025,4.0167 -0.264691,3.9669 l -0.02132,6.9013 c 4.316627,-0.066 7.063683,-0.5555 10.125503,-1.1487 -0.013,0 -0.026,0 -0.0388,0.01 -0.473614,0.054 0.614392,-0.8083 2.009113,-1.6982 0.757786,-0.4835 2.47683,-1.6178 2.975581,-1.9364 1.446101,-0.9243 2.994178,-1.6652 4.652201,-2.1408 2.437707,-0.699 4.14713,-0.2543 5.78869,0.7218 0.469851,0.2794 0.954856,0.7404 0.539666,1.1333 -0.0895,0.084 -0.196586,0.1747 -0.318809,0.2676 0.56251,-0.3291 1.23112,-0.6415 1.839133,-0.7506 1.064843,-0.191 2.02477,-0.2041 3.094845,-0.195 0.47442,-0.9533 0.706729,-2.1359 1.092395,-3.1393 0.645567,-1.6796 1.432576,-3.2537 2.054818,-4.9213 0.566272,-1.5182 0.839698,-1.5064 0.926822,-2.7076 0.157582,-2.1744 0.734964,-3.7978 0.87689,-4.6915 0.141663,-0.892 -1.497622,-1.3605 -2.158505,-1.8077 z"
       style="fill:#e64438;stroke:#000000;stroke-width:0.02013060000000000;opacity:0.6"
       inkscape:connector-curvature="0" />
    <path
       id="180630157"
       parent_id="180630150"
       order="98"
       structure_id="1097"
       d="m 34.592736,977.94046 c 1.033527,0.0384 2.808701,-1.36743 2.986672,-2.53391 0,0 -1.335975,-0.0878 -1.725726,-0.17272 -0.38959,-0.085 -1.224397,-0.22707 -1.224397,-0.22707 l -0.03655,2.9337 z"
       style="fill:#e64438;stroke:#000000;stroke-width:0.02013060000000000;opacity:0.6"
       inkscape:connector-curvature="0" />
    <path
       id="180630166"
       parent_id="180630150"
       order="103"
       structure_id="110"
       d="m 34.783627,1017.4214 -0.17803,-0.044 c 0.08511,0.052 0.159535,0.1577 0.203328,0.3358 0.04096,0.1666 0.07177,0.3425 0.126268,0.5041 0.05221,0.1547 0.04764,0.3243 0.07082,0.4845 0.01045,0.074 0.01876,0.1509 0.02314,0.2255 0.01745,0.3032 0.01959,0.6109 0.01908,0.9147 -2.01e-4,0.1806 -0.0018,0.3611 -0.0049,0.5416 -0.0065,0.4019 -0.02022,0.8035 -0.04192,1.2052 -0.0087,0.1594 -0.0023,0.3189 -0.01713,0.4779 -0.01862,0.1986 -0.01747,0.3979 -0.03264,0.5964 -0.01598,0.2061 -0.03457,0.4118 -0.0509,0.6175 -0.01222,0.1519 -0.0046,0.3116 -0.01027,0.4628 -0.01862,0.5022 -0.0581,0.998 -0.06788,1.5005 -0.0068,0.3608 -0.01288,0.7216 -0.01859,1.0824 -0.0036,0.214 0.01013,0.3454 0.0098,0.4502 0.106705,-0.041 0.216188,-0.086 0.327663,-0.134 0.07654,-2.6582 1.127776,-7.7218 -0.357832,-9.221 z"
       style="fill:#ff5d50;stroke:#000000;stroke-width:0.02013060000000000;opacity:0.6"
       inkscape:connector-curvature="0" />
    <path
       id="180630165"
       parent_id="180630150"
       order="104"
       structure_id="30"
       d="m 34.802666,1026.7727 c 0.0033,0.5413 0.0095,1.0802 0.0082,1.6176 -0.0072,3.0464 -0.08352,6.2826 -0.166418,9.3317 -0.02612,0.9596 0.01988,3.1346 -0.144421,3.7823 l 0.01085,-0.012 c 1.113063,-1.1071 0.543007,-5.1701 0.667363,-6.6347 0.228727,-2.6956 0.09771,-5.0049 -0.03361,-7.6002 -0.009,-0.1821 -0.0096,-0.3839 -0.0036,-0.602 l -0.338391,0.1171"
       style="fill:#ff5d50;stroke:#000000;stroke-width:0.02013060000000000;opacity:0.6"
       inkscape:connector-curvature="0" />
    <path
       id="180630172"
       parent_id="180630150"
       order="107"
       structure_id="338"
       d="m 34.592736,977.94046 c 1.033527,0.0384 2.808701,-1.36743 2.986672,-2.53391 0,0 -1.335975,-0.0878 -1.725726,-0.17272 -0.38959,-0.085 -1.224397,-0.22707 -1.224397,-0.22707 l -0.03655,2.9337 z"
       style="fill:#ff5547;stroke:#000000;stroke-width:0.02013060000000000;opacity:0.6"
       inkscape:connector-curvature="0" />
    <path
       id="180630271"
       parent_id="180630150"
       order="114"
       structure_id="1009"
       d="m 46.454289,1045.7479 c 0.757787,-0.4835 2.47683,-1.6178 2.975582,-1.9364 1.446101,-0.9243 2.994178,-1.6652 4.6522,-2.1408 2.437707,-0.699 4.14713,-0.2543 5.78869,0.7218 0.469851,0.2794 0.954857,0.7404 0.539666,1.1333 -0.48259,0.4562 -1.473351,1.0701 -2.621573,1.4452 -1.465361,0.4787 -3.652786,1.2189 -4.848626,1.3269 -0.300675,0.027 -1.854951,6e-4 -3.509049,0.2411 -1.891338,0.2751 -3.843677,0.7757 -4.986002,0.9071 -0.473615,0.054 0.614392,-0.8083 2.009112,-1.6982 z"
       style="fill:#cccccc;stroke:#000000;stroke-width:0.02013060000000000;opacity:0.6"
       inkscape:connector-curvature="0" />
    <path
       id="180630272"
       parent_id="180630150"
       order="115"
       structure_id="1009"
       d="m 74.697268,985.22725 c -0.299045,1.62357 -0.256962,2.35954 -1.347243,3.68425 -0.9715,1.18046 -2.132623,2.21284 -2.871815,3.57186 -0.650296,1.1957 -1.030247,2.57482 -1.493415,3.83353 -0.631359,1.71657 -1.574986,4.31311 -1.85787,6.95191 -0.285662,2.6639 0.821263,5.1943 0.566433,6.2464 -0.217134,0.896 -3.074921,-0.2676 -4.089027,-1.3532 -1.130089,-1.2099 -0.948356,-2.5499 -0.699403,-3.6064 0.887979,-3.7694 1.958859,-7.02768 3.079832,-10.59455 0.385183,-1.2259 1.524912,-3.5748 1.113788,-4.94241 -0.315528,-1.04983 -1.615779,-1.7899 -2.554355,-2.31248 1.922654,-0.53921 3.303166,-1.59171 5.145559,-2.91863 1.335813,-0.96216 2.037027,-4.29072 3.545437,-4.42023 1.436299,-0.11834 1.890009,3.53692 1.462079,5.85995 z"
       style="fill:#cccccc;stroke:#000000;stroke-width:0.02013060000000000;opacity:0.6"
       inkscape:connector-curvature="0" />
    <path
       id="180630273"
       parent_id="180630150"
       order="116"
       structure_id="1009"
       d="m 63.292848,981.36587 c 0.466913,-1.10516 0.951314,-1.58984 1.898986,-1.8945 1.440909,-0.46299 1.964575,0.37188 3.059767,1.04286 0.71653,0.43908 2.056266,1.47965 2.137514,2.12985 0.09381,0.75032 -1.851349,2.05447 -3.182453,2.84064 -1.506155,0.88963 -3.319165,2.00199 -4.344038,0.1827 -0.359241,-0.63728 -0.202281,-2.80512 0.430224,-4.30155 z"
       style="fill:#cccccc;stroke:#000000;stroke-width:0.02013060000000000;opacity:0.6"
       inkscape:connector-curvature="0" />
    <path
       id="180630274"
       parent_id="180630150"
       order="117"
       structure_id="1009"
       d="m 50.472374,1023.7982 c 1.339073,-0.789 -0.856524,-4.7606 -2.097384,-4.96 -0.884256,-0.1421 -1.320316,0.5923 -1.326695,1.3428 -0.009,1.1057 1.886587,4.5228 3.424079,3.6172 z"
       style="fill:#cccccc;stroke:#000000;stroke-width:0.02013060000000000;opacity:0.6"
       inkscape:connector-curvature="0" />
    <path
       id="180630276"
       parent_id="180630150"
       order="118"
       structure_id="1009"
       d="m 46.383327,984.3337 c 0.814903,-1.31931 0.928612,-3.37817 0.712122,-5.47439 -0.170483,-1.64697 -2.403594,-1.12767 -3.758023,-0.85729 -1.022257,0.20415 -2.264103,0.27397 -2.509334,1.7051 -0.169819,0.99178 0.750462,1.82697 1.214939,2.65808 1.110347,1.98683 2.293971,5.27955 4.340296,1.9685 z"
       style="fill:#cccccc;stroke:#000000;stroke-width:0.02013060000000000;opacity:0.6"
       inkscape:connector-curvature="0" />
    <path
       id="180630277"
       parent_id="180630150"
       order="119"
       structure_id="1009"
       d="m 83.227219,960.84391 c 4.23212,2.69813 8.678798,6.29215 10.726532,8.724 2.322427,2.7579 4.413612,5.75989 6.149439,8.59487 2.13987,3.49334 3.74085,6.73361 4.5747,8.95569 0.34149,0.90629 0.66151,2.3054 0.9059,3.84847 0.1624,1.02646 0.2912,2.11821 0.36832,3.16792 0.0594,0.81828 0.0889,1.613 0.0784,2.33386 -0.0315,2.19775 -0.38894,3.89658 -0.83819,5.55838 -0.0844,0.3115 -0.16886,0.6214 -0.25331,0.933 -0.0439,0.1558 -0.0861,0.3116 -0.13001,0.469 -0.0962,0.3485 -0.19582,0.6986 -0.30046,1.0587 -0.0304,0.1055 -0.0625,0.2127 -0.0945,0.3199 -0.22271,0.7504 -0.47059,1.5393 -0.76545,2.3984 -0.0759,0.2211 -0.15501,0.4472 -0.23757,0.68 -0.01,0 -0.0183,0 -0.0284,-0.01 -0.35548,1.0216 -0.74264,2.0196 -1.13148,3.0176 -0.32477,0.8021 -0.57227,1.4552 -0.78777,2.0279 -0.0152,0.038 -0.0303,0.079 -0.0455,0.1172 -0.46296,1.2107 -0.95256,2.3929 -1.575687,3.5293 -0.04534,0.082 -0.09069,0.1641 -0.137699,0.2461 -1.502955,2.6494 -3.84428,6.9259 -5.109452,8.2516 -0.206126,0.2173 -0.385283,0.3543 -0.52572,0.3941 -1.695355,0.466 2.195999,-3.7103 2.78449,-5.0078 0.538056,-1.1853 -2.698836,1.9887 -4.97761,2.5839 -0.456427,0.1193 -0.191092,-0.351 0.462243,-0.9626 0.480779,-0.4496 1.092092,-0.9775 2.051135,-1.5866 2.301356,-1.4602 4.508303,-3.7756 5.78277,-6.5631 1.5132,-3.3066 2.36405,-5.7601 3.32464,-8.624 0.75839,-2.261 2.27701,-7.41163 1.91201,-11.1428 -0.24328,-2.50201 -0.19743,-3.89836 -1.56601,-7.2134 -1.561,-3.78332 -1.9368,-4.37119 -3.69674,-6.96819 -2.703082,-3.98954 -4.125837,-5.90823 -6.323627,-8.4428 -1.38029,-1.59334 -2.832187,-2.69067 -6.208025,-5.13147 -3.162468,-2.28761 -4.569666,-3.24064 -7.795931,-4.84275 -3.086796,-1.30834 -5.322885,-2.17159 -7.676265,-2.91448 -1.8243,-0.57537 -7.233965,-2.20572 -11.686198,-2.75863 -2.892444,-0.36057 -5.285974,0.0632 -6.349469,0.40042 -1.911282,0.60628 -3.37282,1.66653 -4.727026,2.5846 -1.506478,1.00145 -3.219443,1.77429 -3.309707,3.51082 -0.132909,2.59813 0.984763,4.30973 2.073776,4.95167 2.081344,1.2249 5.059804,1.3024 6.84516,1.48706 2.688854,0.27781 7.418859,-0.46937 8.967057,4.25945 0.854431,2.60438 0.979691,3.75816 -0.01518,5.19698 -1.414302,2.04781 -4.401939,-0.61313 -7.511918,-1.99195 -2.377532,-1.05478 -6.554005,-1.06708 -9.771012,-0.69934 -0.656777,0.0752 -2.662267,0.34088 -5.597095,0.19308 -1.778937,-0.0907 -3.649264,-0.34604 -6.488174,-0.7316 l 0.02652,-9.07795 c 1.018412,0.2243 7.441157,0.47287 8.555347,-1.20031 0.239958,-0.36141 0.232913,-0.81239 -0.131299,-1.37341 -0.745068,-1.15224 -2.234499,-0.26308 -3.404779,0.0269 -1.225444,0.30319 -2.173739,0.66418 -3.260478,0.95437 -0.697189,0.18572 -1.143635,0.3269 -1.75533,0.40557 0.0029,-0.97738 0.01554,-5.31433 0.04285,-6.08039 0,0 0.103486,0.0288 0.288821,0.0696 0.0017,0 0.0017,0 0.0033,0.002 0.03004,0.009 0.06344,0.0169 0.100185,0.0254 0.04506,0.0102 0.108517,0.0221 0.190327,0.0358 0.0033,0 0.0067,0.002 0.01002,0.002 0.791397,0.15825 2.277588,0.38558 3.82496,0.25601 0.06681,-0.005 0.133674,-0.0113 0.200532,-0.0212 0.885704,-0.0963 1.770182,-0.34517 2.586353,-0.65794 1.779521,-0.68212 3.242507,-1.66859 3.736508,-2.06782 0.209306,-0.16872 0.400297,-0.34753 0.577926,-0.53142 0.678653,-0.70379 1.157077,-1.49702 1.635421,-2.2517 l 0.0017,0 c 0.454838,-0.71786 0.907884,-1.39718 1.53089,-1.92509 0.236133,-0.20216 0.497282,-0.38078 0.790089,-0.53249 0.257647,-0.13168 0.54031,-0.24315 0.854631,-0.32774 0.489875,-0.13267 1.05808,-0.20309 1.726309,-0.19441 0.646492,0.007 1.421406,0.093 2.257985,0.22627 2.544794,0.40984 5.659645,1.27065 7.467442,1.77219 1.472284,0.40837 2.717471,0.77916 4.011,1.19035 0,0 0,0 0.0017,2e-5 1.124937,0.35872 2.288214,0.74939 3.665083,1.22118 3.526458,1.20737 6.69611,2.1773 10.470595,4.26388 0.855658,0.47359 1.747864,1.00766 2.649971,1.58198 v 0.002 z"
       style="fill:#cccccc;stroke:#000000;stroke-width:0.02013060000000000;opacity:0.6"
       inkscape:connector-curvature="0" />
    <path
       id="180630267"
       parent_id="180630150"
       order="120"
       structure_id="81"
       d="m 54.990136,968.82389 c 2.414682,0.24957 5.52746,0.005 7.445726,1.76877 1.026342,0.94389 1.67678,2.46079 1.919554,3.81464 0.102761,0.57192 0.439501,1.74995 0.202785,2.74313 -0.21486,0.90134 -0.972325,1.63117 -1.481683,1.97941 0.02642,-0.0179 1.073336,0.17066 1.22472,0.17124 0.395306,0.002 1.152127,-0.17877 1.532419,-0.35861 0.885202,-0.41879 0.783086,-1.14339 0.398889,-3.10028 -0.27409,-1.39665 -0.88164,-3.21586 -1.826575,-6.01196 -0.529885,-1.56815 0.07064,-3.05975 0.682116,-4.53747 0.502314,-1.21311 2.520905,-3.1096 2.580456,-4.47858 0.0734,-1.68062 -2.803648,-2.88622 -4.249568,-3.56105 -1.533547,-0.71568 -2.335408,-1.15239 -5.445751,-1.48194 -1.146894,-0.12158 -2.773119,0.17231 -3.865211,0.51857 -1.912692,0.60656 -3.372659,1.6667 -4.726766,2.58464 -1.506477,1.00137 -3.220931,1.77483 -3.309685,3.5108 -0.13295,2.59807 0.983434,4.30987 2.073716,4.95165 2.081222,1.22492 5.059743,1.30253 6.844858,1.48704 z"
       style="fill:#aaaaaa;stroke:#000000;stroke-width:0.02013060000000000;opacity:0.6"
       inkscape:connector-curvature="0" />
    <path
       id="180630268"
       parent_id="180630150"
       order="121"
       structure_id="129"
       d="m 34.378702,1041.6889 c 0.30621,0.057 0.234583,-2.8213 0.265757,-3.9669 0.08288,-3.0491 0.159213,-6.2853 0.166418,-9.3317 0.0034,-1.4545 -0.04764,-2.919 0.05122,-4.4165 0.062,-0.9381 0.589941,-6.6042 -0.412251,-6.6352 l -0.07114,24.3503 z"
       style="fill:#aaaaaa;stroke:#000000;stroke-width:0.02013060000000000;opacity:0.6"
       inkscape:connector-curvature="0" />
    <path
       id="180630269"
       parent_id="180630150"
       order="122"
       structure_id="129"
       d="m 34.560294,979.52104 c 1.642346,0.14448 3.592752,-0.0705 4.9664,0.11232 1.502896,0.20005 0.811161,-0.18574 1.749877,-0.9588 0.754385,-0.62106 2.099194,-0.68876 3.13252,-0.87186 1.158487,-0.20522 1.818565,-0.005 2.467392,-0.3132 0.865317,-0.6958 1.498004,-1.41498 2.477192,-2.06027 -1.357045,-0.10872 -2.730211,0.19613 -4.142722,0.32318 -1.390654,0.12506 -2.811618,0.0972 -4.148598,0.0296 -0.64426,-0.0325 -2.675712,-0.2893 -3.511183,-0.26374 0,0 -1.192077,2.58434 -2.986007,2.33826 l -0.0049,1.66448 z"
       style="fill:#aaaaaa;stroke:#000000;stroke-width:0.02013060000000000;opacity:0.6"
       inkscape:connector-curvature="0" />
    <path
       id="180630297"
       parent_id="180630295"
       order="0"
       structure_id="125"
       d="m 46.454289,1045.7479 c 0.757787,-0.4835 2.47683,-1.6178 2.975582,-1.9364 1.446101,-0.9243 2.994178,-1.6652 4.6522,-2.1408 2.437707,-0.699 4.14713,-0.2543 5.78869,0.7218 0.469851,0.2794 0.954857,0.7404 0.539666,1.1333 -0.48259,0.4562 -1.473351,1.0701 -2.621573,1.4452 -1.465361,0.4787 -3.652786,1.2189 -4.848626,1.3269 -0.300675,0.027 -1.854951,6e-4 -3.509049,0.2411 -1.891338,0.2751 -3.843677,0.7757 -4.986002,0.9071 -0.473615,0.054 0.614392,-0.8083 2.009112,-1.6982 z"
       style="fill:#cccccc;stroke:#000000;stroke-width:0.02013060000000000;opacity:0.6"
       inkscape:connector-curvature="0" />
    <path
       id="180630303"
       parent_id="180630295"
       order="1"
       structure_id="802"
       d="m 46.383327,984.3337 c 0.814903,-1.31931 0.928612,-3.37817 0.712122,-5.47439 -0.170483,-1.64697 -2.403594,-1.12767 -3.758023,-0.85729 -1.022257,0.20415 -2.264103,0.27397 -2.509334,1.7051 -0.169819,0.99178 0.750462,1.82697 1.214939,2.65808 1.110347,1.98683 2.293971,5.27955 4.340296,1.9685 z"
       style="fill:#cccccc;stroke:#000000;stroke-width:0.02013060000000000;opacity:0.6"
       inkscape:connector-curvature="0" />
    <path
       id="180630304"
       parent_id="180630295"
       order="2"
       structure_id="940"
       d="m 62.691618,952.65797 c -0.0868,-0.0243 -0.174328,-0.0486 -0.262719,-0.0732 -1.807798,-0.50155 -4.922648,-1.36236 -7.467442,-1.77219 -0.836579,-0.13323 -1.611493,-0.21933 -2.257985,-0.22627 -0.668229,-0.009 -1.236454,0.0617 -1.72631,0.19441 -0.31432,0.0846 -0.596984,0.19606 -0.854631,0.32774 -0.292806,0.15171 -0.553935,0.33032 -0.790088,0.53249 -0.623007,0.52791 -1.076073,1.20721 -1.53089,1.92509 l -0.0017,0 c -0.478344,0.75468 -0.956769,1.54791 -1.635422,2.2517 -0.177628,0.18389 -0.368599,0.3627 -0.577925,0.53142 -0.178996,0.14466 -0.485287,0.36642 -0.887657,0.62286 3.580354,-0.81333 3.924904,-2.63186 8.618341,-4.06031 3.70308,-1.12703 7.305552,-0.36226 9.374398,-0.25378 z"
       style="fill:#cccccc;stroke:#000000;stroke-width:0.02013060000000000;opacity:0.6"
       inkscape:connector-curvature="0" />
    <path
       id="180630309"
       parent_id="180630295"
       order="3"
       structure_id="530"
       d="m 42.356245,962.07926 c -2.148724,0.36767 -4.55771,0.34776 -7.745013,0.34726 -0.0047,1.0295 -0.0074,1.96657 -0.0086,2.3598 0.611695,-0.0787 1.058141,-0.21985 1.75533,-0.40557 1.086739,-0.29019 2.035034,-0.65118 3.260478,-0.95437 0.838853,-0.20782 1.841649,-0.72343 2.616764,-0.57451 0.04355,0.008 0.08632,0.0191 0.128361,0.0319 0.08978,-0.2336 0.335431,-0.68 0.52103,-0.90406 -0.174569,0.036 -0.350567,0.0692 -0.528397,0.0996 z"
       style="fill:#cccccc;stroke:#000000;stroke-width:0.02013060000000000;opacity:0.6"
       inkscape:connector-curvature="0" />
    <path
       id="180630307"
       parent_id="180630295"
       order="4"
       structure_id="449"
       d="m 42.200655,965.45996 c -2.156754,0.90366 -6.753267,0.70009 -7.601417,0.51329 l -0.0031,1.07337 -0.02338,8.00457 c 0.669959,0.091 1.285921,0.17471 1.859519,0.25075 1.857004,0.24613 3.269535,0.41153 4.628654,0.48086 1.947569,0.0981 3.485643,0.0141 4.492162,-0.0755 -0.509498,-5.99472 -1.092615,-8.01013 -3.352392,-10.24731 z"
       style="fill:#cccccc;stroke:#000000;stroke-width:0.02013060000000000;opacity:0.6"
       inkscape:connector-curvature="0" />
    <path
       id="180630302"
       parent_id="180630295"
       order="5"
       structure_id="436"
       d="m 50.472374,1023.7982 c 1.339073,-0.789 -0.856524,-4.7606 -2.097384,-4.96 -0.884256,-0.1421 -1.320316,0.5923 -1.326695,1.3428 -0.009,1.1057 1.886587,4.5228 3.424079,3.6172 z"
       style="fill:#cccccc;stroke:#000000;stroke-width:0.02013060000000000;opacity:0.6"
       inkscape:connector-curvature="0" />
    <path
       id="180630308"
       parent_id="180630295"
       order="6"
       structure_id="603"
       d="m 63.956065,973.084 c -1.548198,-4.72882 -6.278183,-3.98161 -8.967057,-4.25945 -1.785356,-0.18463 -4.763816,-0.26213 -6.84516,-1.48705 -1.089013,-0.64193 -2.206685,-2.35355 -2.073776,-4.95167 0.05259,-1.01161 0.655931,-1.69614 1.448254,-2.28938 -1.569731,0.98566 -3.039862,1.55473 -4.633684,1.88318 -0.185599,0.22406 -0.431251,0.67047 -0.52103,0.90406 0.253622,0.0768 0.478645,0.23591 0.659634,0.51582 0.364232,0.561 0.371256,1.01199 0.131299,1.37341 -0.186261,0.2797 -0.52101,0.50563 -0.95391,0.68702 2.259776,2.2372 2.842914,4.25261 3.352372,10.24731 0.510223,-0.0454 0.884014,-0.0923 1.104933,-0.11756 3.217007,-0.36773 7.39348,-0.35543 9.771011,0.69935 3.10998,1.37882 6.097617,4.03978 7.511919,1.99194 0.994886,-1.43881 0.869626,-2.59259 0.0152,-5.19698 z"
       style="fill:#cccccc;stroke:#000000;stroke-width:0.02013060000000000;opacity:0.6"
       inkscape:connector-curvature="0" />
    <path
       id="180630301"
       parent_id="180630295"
       order="7"
       structure_id="301"
       d="m 63.292848,981.36587 c 0.466913,-1.10516 0.951314,-1.58984 1.898986,-1.8945 1.440909,-0.46299 1.964575,0.37188 3.059767,1.04286 0.71653,0.43908 2.056266,1.47965 2.137514,2.12985 0.09381,0.75032 -1.851349,2.05447 -3.182453,2.84064 -1.506155,0.88963 -3.319165,2.00199 -4.344038,0.1827 -0.359241,-0.63728 -0.202281,-2.80512 0.430224,-4.30155 z"
       style="fill:#cccccc;stroke:#000000;stroke-width:0.02013060000000000;opacity:0.6"
       inkscape:connector-curvature="0" />
    <path
       id="180630300"
       parent_id="180630295"
       order="8"
       structure_id="6"
       d="m 74.697268,985.22725 c -0.299045,1.62357 -0.256962,2.35954 -1.347243,3.68425 -0.9715,1.18046 -2.132623,2.21284 -2.871815,3.57186 -0.650296,1.1957 -1.030247,2.57482 -1.493415,3.83353 -0.631359,1.71657 -1.574986,4.31311 -1.85787,6.95191 -0.285662,2.6639 0.821263,5.1943 0.566433,6.2464 -0.217134,0.896 -3.074921,-0.2676 -4.089027,-1.3532 -1.130089,-1.2099 -0.948356,-2.5499 -0.699403,-3.6064 0.887979,-3.7694 1.958859,-7.02768 3.079832,-10.59455 0.385183,-1.2259 1.524912,-3.5748 1.113788,-4.94241 -0.315528,-1.04983 -1.615779,-1.7899 -2.554355,-2.31248 1.922654,-0.53921 3.303166,-1.59171 5.145559,-2.91863 1.335813,-0.96216 2.037027,-4.29072 3.545437,-4.42023 1.436299,-0.11834 1.890009,3.53692 1.462079,5.85995 z"
       style="fill:#cccccc;stroke:#000000;stroke-width:0.02013060000000000;opacity:0.6"
       inkscape:connector-curvature="0" />
    <path
       id="180630305"
       parent_id="180630295"
       order="9"
       structure_id="776"
       d="m 105.95209,994.13486 c -0.0771,-1.04969 -0.2059,-2.14144 -0.36832,-3.16792 -0.24439,-1.54307 -0.56441,-2.94218 -0.9059,-3.84847 -0.83385,-2.22208 -2.43481,-5.46235 -4.5747,-8.95569 -0.655348,-1.07033 -1.361411,-2.16448 -2.11141,-3.26029 -1.236473,-1.80667 -2.592431,-3.61791 -4.038029,-5.33456 -2.047735,-2.43185 -6.494412,-6.02587 -10.726533,-8.724 v -0.002 c -0.902107,-0.57429 -1.794312,-1.10837 -2.64997,-1.58196 -3.774486,-2.08658 -6.944137,-3.05651 -10.470595,-4.26388 -1.376869,-0.47178 -2.540146,-0.86246 -3.665083,-1.22118 -0.0017,0 -0.0017,0 -0.0017,0 -1.215864,-0.38651 -2.389063,-0.73734 -3.748282,-1.1172 -2.068845,-0.10848 -5.671317,-0.87325 -9.374418,0.25378 -4.693437,1.42845 -5.037966,3.24697 -8.61834,4.06031 -0.708178,0.45129 -1.714113,1.00998 -2.848851,1.44493 -0.816172,0.31277 -1.700649,0.56164 -2.586354,0.65794 -0.06685,0.01 -0.133715,0.0164 -0.200531,0.0212 -1.547372,0.12957 -3.033544,-0.0978 -3.82496,-0.25602 -0.0033,0 -0.0067,-0.002 -0.01002,-0.002 -0.08181,-0.0137 -0.145266,-0.0256 -0.190327,-0.0358 -0.03673,-0.009 -0.07012,-0.017 -0.100186,-0.0254 -0.0016,-0.002 -0.0016,-0.002 -0.0033,-0.002 -0.185336,-0.0408 -0.288821,-0.0696 -0.288821,-0.0696 -0.01633,0.45785 -0.02739,2.19123 -0.03429,3.72059 3.187302,4.8e-4 5.596289,0.0204 7.745013,-0.34727 1.801458,-0.30824 3.420417,-0.88917 5.162081,-1.98279 0.567782,-0.42511 1.232569,-0.80337 1.861452,-1.22144 1.354207,-0.91807 2.815744,-1.97832 4.727027,-2.5846 1.063494,-0.33718 3.457025,-0.76099 6.349468,-0.40042 4.452233,0.55293 9.861899,2.18326 11.686198,2.75863 2.353381,0.74289 4.58947,1.60614 7.676266,2.91448 3.226285,1.60211 4.633483,2.55514 7.79593,4.84275 3.375838,2.4408 4.827736,3.53813 6.208026,5.13147 1.172957,1.3527 2.125217,2.53006 3.169109,3.94036 0.912069,1.23219 1.894075,2.64214 3.15452,4.50245 1.75992,2.597 2.13574,3.18486 3.69674,6.96818 1.36858,3.31504 1.32273,4.71139 1.56601,7.2134 0.0168,0.17193 0.0296,0.34692 0.0387,0.52447 0.15344,0.0146 0.36917,0.0467 0.5456,0.10423 -0.0114,-0.21621 -0.0252,-0.43499 -0.0412,-0.65561 z"
       style="fill:#cccccc;stroke:#000000;stroke-width:0.02013060000000000;opacity:0.6"
       inkscape:connector-curvature="0" />
    <path
       id="180630306"
       parent_id="180630295"
       order="10"
       structure_id="579"
       d="m 105.44773,994.68622 c 0.18793,3.6753 -1.22723,8.46158 -1.95067,10.61838 -0.96059,2.8639 -1.81144,5.3174 -3.32464,8.624 -1.274467,2.7875 -3.481414,5.1029 -5.78277,6.563 -0.959043,0.6091 -1.570356,1.1371 -2.051135,1.5866 -0.653335,0.6117 -0.91865,1.082 -0.462243,0.9626 2.278794,-0.5951 5.515666,-3.7692 4.97761,-2.5838 -0.588491,1.2975 -4.479865,5.4738 -2.78449,5.0077 0.140457,-0.04 0.319594,-0.1767 0.52572,-0.3941 1.265172,-1.3257 3.606497,-5.6022 5.109452,-8.2516 0.04702,-0.082 0.09236,-0.164 0.137699,-0.246 0.623127,-1.1365 1.112727,-2.3186 1.575687,-3.5293 0.0151,-0.038 0.0303,-0.079 0.0455,-0.1173 0.2155,-0.5727 0.463,-1.2257 0.78777,-2.0278 0.38882,-0.9981 0.776,-1.9961 1.13148,-3.0177 0.01,0 0.0184,0 0.0284,0.01 0.0826,-0.2327 0.16173,-0.4588 0.23757,-0.6799 0.29486,-0.8592 0.54274,-1.6481 0.76545,-2.3985 0.0321,-0.1071 0.0641,-0.2143 0.0945,-0.3199 0.10462,-0.3601 0.20421,-0.7102 0.30046,-1.0586 0.0439,-0.1575 0.0861,-0.3133 0.13001,-0.469 0.0845,-0.3116 0.16889,-0.6215 0.25331,-0.9331 0.44925,-1.6617 0.80672,-3.36057 0.83819,-5.55834 0.008,-0.5265 -0.006,-1.09251 -0.0372,-1.67827 -0.17647,-0.0574 -0.39218,-0.0896 -0.54562,-0.10419 z"
       style="fill:#cccccc;stroke:#000000;stroke-width:0.02013060000000000;opacity:0.6"
       inkscape:connector-curvature="0" />
  </g>
  <g
     inkscape:groupmode="layer"
     id="layer2"
     inkscape:label="Pen"
     style="display:inline">
    <g
       id="g4512"
       transform="matrix(1.2909949,0,0,1.2909949,131.29252,-1193.6961)">
      <g
         id="g4596"
         transform="translate(-36.071429,-28.214285)">
        <path
           inkscape:connector-curvature="0"
           d="m -42.339627,1026.8645 c -0.77439,0.5557 -2.92124,-0.6378 -8.51719,-15.9707 -5.66254,-17.06059 -4.2457,-16.86971 -4.30595,-17.4036"
           id="path1910"
           sodipodi:nodetypes="ccc"
           style="fill:none;stroke:#000000;stroke-width:2;stroke-miterlimit:4;stroke-dasharray:none" />
        <path
           inkscape:connector-curvature="0"
           d="m -40.230727,1026.4887 c 0.95081,-0.027 2.20713,-1.5004 -1.97139,-18.1439 -3.5426,-11.56157 -5.8219,-16.45564 -7.28664,-17.30656"
           id="path1911"
           sodipodi:nodetypes="ccc"
           style="fill:none;stroke:#000000;stroke-width:2;stroke-miterlimit:4;stroke-dasharray:none" />
        <path
           inkscape:connector-curvature="0"
           d="m -49.077637,992.60951 c 1.82141,-0.46175 1.00529,-3.40522 -0.77111,-3.30862"
           id="path1914"
           sodipodi:nodetypes="cc"
           style="fill:none;stroke:#000000;stroke-width:2;stroke-miterlimit:4;stroke-dasharray:none" />
        <path
           inkscape:connector-curvature="0"
           d="m -49.350777,991.75003 c 3.83048,6.03239 9.6524,24.79087 9.39467,33.88877 0.10302,0.3943 -2.76464,1.2389 -2.92037,0.9477 -5.20199,-7.3891 -11.24548,-25.8275 -12.10857,-33.04382 2.78153,-1.8361 5.63427,-1.79265 5.63427,-1.79265 z"
           id="path1905"
           sodipodi:nodetypes="ccccc"
           style="fill:#8c9fbd;fill-rule:evenodd;stroke:#000000;stroke-width:2;stroke-miterlimit:4;stroke-dasharray:none" />
        <path
           inkscape:connector-curvature="0"
           d="m -54.995427,994.37926 c -1.19684,0.18685 -2.51294,-1.39725 -1.03096,-3.20469"
           id="path1912"
           sodipodi:nodetypes="cc"
           style="fill:none;stroke:#000000;stroke-width:2;stroke-miterlimit:4;stroke-dasharray:none" />
        <path
           inkscape:connector-curvature="0"
           d="m -48.999747,989.59106 c -0.0716,-5.28087 -3.48964,-13.98335 -3.953,-15.37073 -0.46336,-1.38738 -5.85707,-14.32719 -9.3933,-13.25056 -3.53624,1.07663 -2.69372,8.45871 0.69295,18.83458 3.38665,10.37588 5.32869,12.10722 5.32869,12.10722"
           id="path1915"
           sodipodi:nodetypes="ccccc"
           style="fill:none;stroke:#000000;stroke-width:2;stroke-miterlimit:4;stroke-dasharray:none" />
        <path
           inkscape:connector-curvature="0"
           d="m -62.277657,961.6356 c 4.55845,-1.33244 12.51277,19.98468 12.66047,27.93442 0.27732,1.10285 -1.49936,0.97906 -3.32095,1.45174 -1.87159,0.48957 -2.8523,1.62629 -3.10565,0.61411 -4.60669,-7.71494 -11.04993,-28.44138 -6.23387,-30.00027 z"
           id="path1903"
           sodipodi:nodetypes="ccccc"
           style="fill:#8c9fbd;fill-rule:evenodd;stroke:#000000;stroke-width:2;stroke-miterlimit:4;stroke-dasharray:none" />
        <path
           inkscape:connector-curvature="0"
           d="m -48.777517,990.83263 c 0.51569,1.72979 -1.41065,1.15319 -3.33751,1.69877 -1.92686,0.54558 -3.44182,1.8442 -3.85451,0.60852 -0.4127,-1.23567 1.53766,-2.7231 3.10609,-3.04173 1.56844,-0.31863 3.66549,-0.71018 4.08593,0.73444 z"
           id="path1904"
           sodipodi:nodetypes="ccccc"
           style="fill:#fae472;fill-rule:evenodd;stroke:#000000;stroke-width:2;stroke-miterlimit:4;stroke-dasharray:none" />
        <path
           inkscape:connector-curvature="0"
           d="m -41.487477,1023.1776 c -2.39379,-14.4726 -5.81269,-23.53112 -7.16543,-26.87449 -1.23632,-3.4947 1.80278,9.26089 2.42446,11.12239 l 4.74097,15.7521 z"
           id="path1906"
           sodipodi:nodetypes="cccc"
           style="fill:#ffffff;fill-opacity:0.54166667;fill-rule:evenodd;stroke:none" />
        <path
           inkscape:connector-curvature="0"
           d="m -51.254397,989.05719 c -1.76027,-10.60272 -5.24954,-18.71734 -6.25367,-20.05757 -1.00412,-1.34023 0.51209,4.86589 0.51209,4.86589 l 5.74158,15.19168 z"
           id="path1907"
           style="fill:#ffffff;fill-opacity:0.54166667;fill-rule:evenodd;stroke:none" />
        <g
           transform="matrix(-1,0,0,1,-81.240135,0.63134534)"
           id="g4592">
          <path
             style="fill:#000000;fill-opacity:0.75;fill-rule:nonzero;stroke:none"
             id="path1918"
             d="m -89.898057,1005.5562 c 0.44304,-0.037 0.89494,-0.021 1.33887,-0.026 3.43339,-0.061 6.8587,-0.058 10.29257,0.025 6.69935,0.1899 13.53472,0.345 20.13069,1.6454 0.22622,0.052 1.62103,0.2231 1.74341,0.541 0.0703,0.1826 -0.41398,-0.1807 -0.4514,-0.373 -0.0416,-0.2134 0.43299,-0.6269 0.21715,-0.6148 -2.15055,0.121 -4.46556,0.8179 -6.61273,1.1154 -10.31757,1.3791 -20.81049,2.0087 -31.05026,3.8952 -12.009683,2.7859 5.56624,5.2695 7.9329,5.4796 7.58445,0.5761 15.56351,0.1829 23.04519,1.6675 0.11995,0.037 -0.0108,-0.9715 -1.00143,-0.4817 -1.9533,0.9658 -3.97788,1.7917 -5.96789,2.6768 -1.59911,0.7217 -7.91016,2.7013 -7.15689,5.2904 1.6497,2.0877 5.90354,1.8552 8.28447,1.9806 3.02055,0.1313 6.0431,0.1404 9.06587,0.156 1.27643,0.012 2.55788,0.014 3.82774,0.1596 1.03101,0.1264 2.05473,0.2268 3.09203,0.2873 1.10467,0.064 2.20862,0.1546 3.30932,0.2684 0.96333,0.1141 1.92105,0.2585 2.88938,0.3263 0.76783,0.046 1.53412,0.1125 2.30292,0.1418 0.69958,0.022 1.39895,0.017 2.09869,0.01 0.58655,-0.01 1.17252,-0.027 1.75689,0.038 l 0.44139,-1.8161 c -0.75373,-0.071 -1.50359,-0.068 -2.25959,-0.058 -0.62463,0.01 -1.24907,0.014 -1.87357,0 -0.72396,-0.025 -1.44581,-0.086 -2.16907,-0.1242 -0.92129,-0.059 -1.83229,-0.2033 -2.74926,-0.3043 -1.15927,-0.1126 -2.32082,-0.2052 -3.48328,-0.2768 -0.96558,-0.06 -1.91756,-0.1679 -2.87797,-0.2802 -1.43526,-0.1508 -2.87984,-0.1338 -4.32095,-0.1215 -2.94091,0.035 -5.88073,0.064 -8.81956,-0.078 -1.56261,-0.095 -3.15046,-0.1912 -4.68545,-0.5199 -0.11358,-0.024 -1.10886,-0.357 -1.12907,-0.2605 -0.28026,0.5283 0.82041,-0.8869 1.3253,-1.2041 1.43783,-0.9034 2.99811,-1.6054 4.53735,-2.3113 0.84446,-0.3765 12.252,-4.1588 6.17029,-5.1622 -7.73385,-0.8591 -15.57829,-0.6506 -23.3349,-1.3394 -1.41877,-0.1503 -13.95334,-0.8287 -7.53494,-2.7112 10.01513,-2.306 20.54102,-2.8744 30.74029,-3.942 1.91967,-0.1986 15.28079,-1.8395 5.37102,-3.6248 -6.82565,-1.0613 -13.79029,-1.2747 -20.68096,-1.5772 -3.47161,-0.1483 -6.94159,-0.2742 -10.41569,-0.3363 -0.44393,0 -0.89583,0.011 -1.33887,-0.026 l 0,1.8727 z"
             inkscape:connector-curvature="0" />
          <path
             style="fill:#000000;fill-opacity:0.06666667;fill-rule:evenodd;stroke:none"
             id="path1919"
             d="m -42.706747,1028.1284 c -0.19537,-0.084 -0.93338,-0.4013 -1.39306,-0.599 -0.40631,-0.1747 -0.81262,-0.3493 -1.21893,-0.524 -0.44044,-0.1894 -0.90949,-0.3153 -1.31998,-0.4918 -0.37702,-0.1621 -1.04405,-0.2975 -1.42106,-0.4596 -0.38236,-0.1644 -1.20383,-0.2148 -1.62319,-0.3951 -0.24709,-0.1062 -1.42253,-0.3895 -1.81132,-0.4002 -0.27758,-0.1194 -1.1011,-0.3457 -1.53612,-0.3577 -0.45206,-0.1943 -1.2776,-0.2464 -1.71025,-0.4324 -0.47713,-0.2052 -1.54574,-0.2104 -1.99945,-0.4055 -0.0986,0.031 -1.64033,-0.251 -1.82532,-0.3306 -0.71719,-0.02 -1.13208,-0.3465 -1.91238,-0.368 -0.28958,-0.1245 -1.37763,-0.3182 -1.82532,-0.3305 -0.4176,-0.1796 -1.46809,-0.177 -1.91238,-0.368 -0.20282,-0.087 -1.34061,-0.3548 -1.44906,-0.3202 -0.44582,-0.1917 -1.03669,-0.143 -1.44905,-0.3202 -0.3994,-0.1718 -0.76312,-0.1767 -1.24693,-0.3847 -0.1246,-0.054 -1.24095,-0.3214 -1.36198,-0.2828 -0.36116,-0.1553 -1.04569,-0.2982 -1.33399,-0.4221 -0.42758,-0.1839 -0.87415,-0.3002 -1.31999,-0.4918 -0.39528,-0.011 -1.2275,-0.3007 -1.43506,-0.3899 -0.4041,-0.011 -1.21184,-0.2182 -1.44905,-0.3202 -0.44293,-0.012 -1.34111,-0.2738 -1.62319,-0.3951 -0.40157,-0.011 -1.25359,-0.3119 -1.52212,-0.4273 -0.68277,-0.019 -1.00466,-0.378 -1.81132,-0.4003 -0.47012,-0.2021 -1.26222,-0.2398 -1.71025,-0.4325 -0.42635,-0.1833 -1.35562,-0.1286 -1.82532,-0.3305 -0.81151,-0.022 -1.42987,-0.1796 -2.22958,-0.2016 -0.30723,-0.1321 -1.50005,-0.115 -1.75225,-0.2235 -0.37759,-0.01 -1.35468,-0.2796 -1.53612,-0.3576 -0.62744,-0.017 -1.19995,-0.1382 -1.95438,-0.159 -0.10325,-0.044 -1.79055,-0.081 -1.98238,-0.02 -0.36258,-0.01 -1.59088,0.2244 -1.64812,0.1998 -0.65757,0.2098 0.0579,0.438 -0.30013,0.5523 0.44191,0.19 0.52663,0.3778 0.92973,0.5511 0.21244,0.091 0.41953,0.3318 0.84266,0.5137 0.23494,0.101 0.65973,0.3593 1.03079,0.5189 0.43027,0.1849 0.9303,0.3242 1.32,0.4918 0.29298,0.1259 1.0433,0.1457 1.44905,0.3202 0.40067,0.011 1.35546,0.2799 1.62319,0.395 0.30069,0.01 1.31921,0.2644 1.53611,0.3577 0.40505,0.1741 1.21815,0.2209 1.62319,0.395 0.3289,0.1414 1.39823,0.3539 1.91239,0.368 0.43528,0.1872 1.24633,0.1574 1.63718,0.3254 0.39612,0.011 1.57225,0.2218 1.82532,0.3306 0.3176,0.1365 1.20613,0.2158 1.62318,0.3951 0.62846,0.097 1.43605,0.3548 2.10052,0.3732 0.40914,0.1759 1.40553,0.15 1.82532,0.3305 0.45517,0.013 1.0184,0.3622 1.31999,0.4918 0.31849,0.137 1.05223,0 1.47705,0.1809 0.42056,0.1808 1.06126,0.2292 1.52212,0.4273 0.41932,0.1803 1.01992,0.2871 1.42106,0.4596 0.41776,0.1796 1.19481,0.2109 1.62319,0.395 0.35381,0.01 1.38397,0.2922 1.53612,0.3577 0.42284,0.1818 1.28457,0.1737 1.72425,0.3628 0.59171,0.016 1.06291,0.2745 1.73825,0.2931 0.45187,0.1943 1.45971,0.2491 1.72425,0.3628 0.1926,0.083 1.58127,0.3433 1.73825,0.2932 0.45101,0.1939 1.29449,0.178 1.72425,0.3628 0.20132,-0.064 1.37576,0.2831 1.73826,0.2931 0.40065,0.1723 1.20637,0.2159 1.62318,0.3951 0.33028,0.142 1.30787,0.3223 1.81132,0.4002 0.26565,-0.085 1.31252,0.2986 1.56412,0.2183 0.38437,0.1653 1.09607,0.1685 1.44905,0.3202 0.73682,0.02 0.9827,0.1672 1.85332,0.1912 0.13861,0.06 1.43791,0.063 1.70719,-0.023 0.33152,0.1426 1.26075,-0.2066 1.57505,-0.3069 0.7466,-0.2382 1.02125,-0.2422 0.30013,-0.5522 z"
             inkscape:connector-curvature="0" />
        </g>
        <path
           inkscape:connector-curvature="0"
           d="m -40.117807,1026.2282 c 0.6641,3.9047 -0.34741,4.433 -2.4255,0.7457 0.93627,-0.076 2.07113,-0.5393 2.4255,-0.7457 z"
           id="path1909"
           sodipodi:nodetypes="ccc"
           style="fill:#929292;fill-rule:evenodd;stroke:#000000;stroke-width:2;stroke-miterlimit:4;stroke-dasharray:none" />
      </g>
    </g>
  </g>
</svg>
