<?xml version="1.0" encoding="UTF-8" standalone="no"?>
<!-- Created with Inkscape (http://www.inkscape.org/) -->

<svg
   xmlns:dc="http://purl.org/dc/elements/1.1/"
   xmlns:cc="http://creativecommons.org/ns#"
   xmlns:rdf="http://www.w3.org/1999/02/22-rdf-syntax-ns#"
   xmlns:svg="http://www.w3.org/2000/svg"
   xmlns="http://www.w3.org/2000/svg"
   xmlns:xlink="http://www.w3.org/1999/xlink"
   xmlns:sodipodi="http://sodipodi.sourceforge.net/DTD/sodipodi-0.dtd"
   xmlns:inkscape="http://www.inkscape.org/namespaces/inkscape"
   width="32px"
   height="32px"
   id="svg2985"
   version="1.1"
   inkscape:version="0.48.3.1 r9886"
   sodipodi:docname="roivisible.svg">
  <sodipodi:namedview
     id="base"
     pagecolor="#ffffff"
     bordercolor="#666666"
     borderopacity="1.0"
     inkscape:pageopacity="0.0"
     inkscape:pageshadow="2"
     inkscape:zoom="2.9154411"
     inkscape:cx="-83.095767"
     inkscape:cy="-21.5619"
     inkscape:current-layer="layer1"
     showgrid="true"
     inkscape:grid-bbox="true"
     inkscape:document-units="px"
     inkscape:window-width="1680"
     inkscape:window-height="996"
     inkscape:window-x="0"
     inkscape:window-y="27"
     inkscape:window-maximized="1"
     showguides="true"
     inkscape:guide-bbox="true" />
  <defs
     id="defs2987">
    <marker
       inkscape:stockid="TriangleOutM"
       orient="auto"
       refY="0.0"
       refX="0.0"
       id="TriangleOutM"
       style="overflow:visible">
      <path
         id="path4055"
         d="M 5.77,0.0 L -2.88,5.0 L -2.88,-5.0 L 5.77,0.0 z "
         style="fill-rule:evenodd;stroke:#000000;stroke-width:1.0pt;marker-start:none"
         transform="scale(0.4)" />
    </marker>
    <marker
       inkscape:stockid="Arrow2Mend"
       orient="auto"
       refY="0.0"
       refX="0.0"
       id="Arrow2Mend"
       style="overflow:visible;">
      <path
         id="path3936"
         style="font-size:12.0;fill-rule:evenodd;stroke-width:0.62500000;stroke-linejoin:round;"
         d="M 8.7185878,4.0337352 L -2.2072895,0.016013256 L 8.7185884,-4.0017078 C 6.9730900,-1.6296469 6.9831476,1.6157441 8.7185878,4.0337352 z "
         transform="scale(0.6) rotate(180) translate(0,0)" />
    </marker>
    <marker
       inkscape:stockid="TriangleOutMY"
       orient="auto"
       refY="0.0"
       refX="0.0"
       id="TriangleOutMY"
       style="overflow:visible">
      <path
         id="path5271"
         d="M 5.77,0.0 L -2.88,5.0 L -2.88,-5.0 L 5.77,0.0 z "
         style="marker-start:none;stroke:#aa0000;stroke-width:1.0pt;fill:#aa0000;fill-rule:evenodd"
         transform="scale(0.4)" />
    </marker>
    <marker
       inkscape:stockid="TriangleOutMH"
       orient="auto"
       refY="0.0"
       refX="0.0"
       id="TriangleOutMH"
       style="overflow:visible">
      <path
         id="path4022"
         d="M 5.77,0.0 L -2.88,5.0 L -2.88,-5.0 L 5.77,0.0 z "
         style="marker-start:none;stroke:#aa0000;stroke-width:1.0pt;fill:#aa0000;fill-rule:evenodd"
         transform="scale(0.4)" />
    </marker>
    <linearGradient
       y2="1742.4102"
       y1="1632.9742"
       xlink:href="#linearGradient879-1"
       x2="289.33801"
       x1="239.50841"
       id="linearGradient878-0"
       gradientUnits="userSpaceOnUse"
       gradientTransform="matrix(0.73964,0,0,0.31981,-11.669289,-39.523791)" />
    <linearGradient
       y2="1690.0869"
       y1="1591.2252"
       xlink:href="#linearGradient875-6"
       x2="483.33511"
       x1="426.94217"
       id="linearGradient874-9"
       gradientUnits="userSpaceOnUse"
       gradientTransform="matrix(0.795803,0,0,0.29724,-11.669289,-39.523791)" />
    <radialGradient
       xlink:href="#linearGradient868-8"
       r="56.314198"
       id="radialGradient867-8"
       gradientUnits="userSpaceOnUse"
       gradientTransform="matrix(0.46663,0,0,0.50692,-11.669289,-39.523791)"
       fy="821.33179"
       fx="1216.2439"
       cy="821.33179"
       cx="1216.2439" />
    <linearGradient
       y2="813.422"
       y1="911.724"
       xlink:href="#linearGradient858-2"
       x2="1136.2676"
       x1="1151.4917"
       id="linearGradient1884-8"
       gradientUnits="userSpaceOnUse"
       gradientTransform="matrix(0.462453,0,0,0.511499,-11.669289,-39.523791)" />
    <linearGradient
       id="linearGradient1881-2">
      <stop
         style="stop-color:#000;stop-opacity:1;"
         offset="0"
         id="stop1882-3" />
      <stop
         style="stop-color:#fff;stop-opacity:1;"
         offset="1"
         id="stop1883-0" />
    </linearGradient>
    <linearGradient
       id="linearGradient1885-7">
      <stop
         style="stop-color:#8a1e1e;stop-opacity:1.0000000;"
         offset="0.0000000"
         id="stop1886-6" />
      <stop
         style="stop-color:#fff;stop-opacity:1;"
         offset="1"
         id="stop1887-7" />
    </linearGradient>
    <linearGradient
       id="linearGradient850-1">
      <stop
         style="stop-color:#000000;stop-opacity:1.0000000;"
         offset="0.0000000"
         id="stop851-6" />
      <stop
         style="stop-color:#000000;stop-opacity:1.0000000;"
         offset="0.0099999998"
         id="stop853-9" />
      <stop
         style="stop-color:#ffecd5;stop-opacity:1.0000000;"
         offset="1.0000000"
         id="stop852-5" />
    </linearGradient>
    <linearGradient
       id="linearGradient858-2">
      <stop
         style="stop-color:#fff48f;stop-opacity:1.0000000;"
         offset="0.0000000"
         id="stop859-9" />
      <stop
         style="stop-color:#fffde5;stop-opacity:1.0000000;"
         offset="1.0000000"
         id="stop861-0" />
    </linearGradient>
    <linearGradient
       id="linearGradient868-8">
      <stop
         style="stop-color:#ffe8da;stop-opacity:1.0000000;"
         offset="0.0000000"
         id="stop869-3" />
      <stop
         style="stop-color:#ffc5a5;stop-opacity:1.0000000;"
         offset="1.0000000"
         id="stop870-3" />
    </linearGradient>
    <linearGradient
       id="linearGradient875-6">
      <stop
         style="stop-color:#efc65c;stop-opacity:1.0000000;"
         offset="0.0000000"
         id="stop876-8" />
      <stop
         style="stop-color:#af9143;stop-opacity:1.0000000;"
         offset="1.0000000"
         id="stop877-1" />
    </linearGradient>
    <linearGradient
       id="linearGradient879-1">
      <stop
         style="stop-color:#ffecd5;stop-opacity:1.0000000;"
         offset="0.0000000"
         id="stop880-8" />
      <stop
         style="stop-color:#af9143;stop-opacity:1.0000000;"
         offset="1.0000000"
         id="stop881-6" />
    </linearGradient>
    <linearGradient
       y2="1742.4102"
       y1="1632.9742"
       xlink:href="#linearGradient879"
       x2="289.33801"
       x1="239.50841"
       id="linearGradient878"
       gradientUnits="userSpaceOnUse"
       gradientTransform="matrix(0.73964,0,0,0.31981,-11.669289,-39.523791)" />
    <linearGradient
       y2="1690.0869"
       y1="1591.2252"
       xlink:href="#linearGradient875"
       x2="483.33511"
       x1="426.94217"
       id="linearGradient874"
       gradientUnits="userSpaceOnUse"
       gradientTransform="matrix(0.795803,0,0,0.29724,-11.669289,-39.523791)" />
    <radialGradient
       xlink:href="#linearGradient868"
       r="56.314198"
       id="radialGradient867"
       gradientUnits="userSpaceOnUse"
       gradientTransform="matrix(0.46663,0,0,0.50692,-11.669289,-39.523791)"
       fy="821.33179"
       fx="1216.2439"
       cy="821.33179"
       cx="1216.2439" />
    <linearGradient
       y2="813.422"
       y1="911.724"
       xlink:href="#linearGradient858"
       x2="1136.2676"
       x1="1151.4917"
       id="linearGradient1884"
       gradientUnits="userSpaceOnUse"
       gradientTransform="matrix(0.462453,0,0,0.511499,-11.669289,-39.523791)" />
    <linearGradient
       id="linearGradient1881">
      <stop
         style="stop-color:#000;stop-opacity:1;"
         offset="0"
         id="stop1882" />
      <stop
         style="stop-color:#fff;stop-opacity:1;"
         offset="1"
         id="stop1883" />
    </linearGradient>
    <linearGradient
       id="linearGradient1885">
      <stop
         style="stop-color:#8a1e1e;stop-opacity:1.0000000;"
         offset="0.0000000"
         id="stop1886" />
      <stop
         style="stop-color:#fff;stop-opacity:1;"
         offset="1"
         id="stop1887" />
    </linearGradient>
    <linearGradient
       id="linearGradient850">
      <stop
         style="stop-color:#000000;stop-opacity:1.0000000;"
         offset="0.0000000"
         id="stop851" />
      <stop
         style="stop-color:#000000;stop-opacity:1.0000000;"
         offset="0.0099999998"
         id="stop853" />
      <stop
         style="stop-color:#ffecd5;stop-opacity:1.0000000;"
         offset="1.0000000"
         id="stop852" />
    </linearGradient>
    <linearGradient
       id="linearGradient858">
      <stop
         style="stop-color:#fff48f;stop-opacity:1.0000000;"
         offset="0.0000000"
         id="stop859" />
      <stop
         style="stop-color:#fffde5;stop-opacity:1.0000000;"
         offset="1.0000000"
         id="stop861" />
    </linearGradient>
    <linearGradient
       id="linearGradient868">
      <stop
         style="stop-color:#ffe8da;stop-opacity:1.0000000;"
         offset="0.0000000"
         id="stop869" />
      <stop
         style="stop-color:#ffc5a5;stop-opacity:1.0000000;"
         offset="1.0000000"
         id="stop870" />
    </linearGradient>
    <linearGradient
       id="linearGradient875">
      <stop
         style="stop-color:#efc65c;stop-opacity:1.0000000;"
         offset="0.0000000"
         id="stop876" />
      <stop
         style="stop-color:#af9143;stop-opacity:1.0000000;"
         offset="1.0000000"
         id="stop877" />
    </linearGradient>
    <linearGradient
       id="linearGradient879">
      <stop
         style="stop-color:#ffecd5;stop-opacity:1.0000000;"
         offset="0.0000000"
         id="stop880" />
      <stop
         style="stop-color:#af9143;stop-opacity:1.0000000;"
         offset="1.0000000"
         id="stop881" />
    </linearGradient>
    <marker
       style="overflow:visible"
       id="TriangleOutMH-5"
       refX="0.0"
       refY="0.0"
       orient="auto"
       inkscape:stockid="TriangleOutMH">
      <path
         transform="scale(0.4)"
         style="marker-start:none;stroke:#aa0000;stroke-width:1.0pt;fill:#aa0000;fill-rule:evenodd"
         d="M 5.77,0.0 L -2.88,5.0 L -2.88,-5.0 L 5.77,0.0 z "
         id="path4022-8" />
    </marker>
    <marker
       style="overflow:visible"
       id="TriangleOutMY-5"
       refX="0.0"
       refY="0.0"
       orient="auto"
       inkscape:stockid="TriangleOutMY">
      <path
         transform="scale(0.4)"
         style="marker-start:none;stroke:#aa0000;stroke-width:1.0pt;fill:#aa0000;fill-rule:evenodd"
         d="M 5.77,0.0 L -2.88,5.0 L -2.88,-5.0 L 5.77,0.0 z "
         id="path5271-5" />
    </marker>
    <marker
       style="overflow:visible;"
       id="Arrow2Mend-1"
       refX="0.0"
       refY="0.0"
       orient="auto"
       inkscape:stockid="Arrow2Mend">
      <path
         transform="scale(0.6) rotate(180) translate(0,0)"
         d="M 8.7185878,4.0337352 L -2.2072895,0.016013256 L 8.7185884,-4.0017078 C 6.9730900,-1.6296469 6.9831476,1.6157441 8.7185878,4.0337352 z "
         style="font-size:12.0;fill-rule:evenodd;stroke-width:0.62500000;stroke-linejoin:round;"
         id="path3936-4" />
    </marker>
    <marker
       style="overflow:visible"
       id="TriangleOutM-1"
       refX="0.0"
       refY="0.0"
       orient="auto"
       inkscape:stockid="TriangleOutM">
      <path
         transform="scale(0.4)"
         style="fill-rule:evenodd;stroke:#000000;stroke-width:1.0pt;marker-start:none"
         d="M 5.77,0.0 L -2.88,5.0 L -2.88,-5.0 L 5.77,0.0 z "
         id="path4055-9" />
    </marker>
  </defs>
  <metadata
     id="metadata2990">
    <rdf:RDF>
      <cc:Work
         rdf:about="">
        <dc:format>image/svg+xml</dc:format>
        <dc:type
           rdf:resource="http://purl.org/dc/dcmitype/StillImage" />
        <dc:title />
      </cc:Work>
    </rdf:RDF>
  </metadata>
  <g
     id="layer1"
     inkscape:label="Layer 1"
     inkscape:groupmode="layer"
     style="display:inline">
    <text
       xml:space="preserve"
       style="font-size:40px;font-style:normal;font-weight:normal;line-height:125%;letter-spacing:0px;word-spacing:0px;fill:#000000;fill-opacity:1;stroke:none;font-family:Sans"
       x="-0.7578125"
       y="28.539062"
       id="text3059"
       sodipodi:linespacing="125%"><tspan
         sodipodi:role="line"
         id="tspan3061"
         x="-0.7578125"
         y="28.539062" /></text>
    <text
       sodipodi:linespacing="125%"
       id="text3059-2"
       y="-0.81486851"
       x="-148.83531"
       style="font-size:40px;font-style:normal;font-weight:normal;line-height:125%;letter-spacing:0px;word-spacing:0px;fill:#000000;fill-opacity:1;stroke:none;font-family:Sans"
       xml:space="preserve"><tspan
         y="-0.81486851"
         x="-148.83531"
         id="tspan3061-1"
         sodipodi:role="line" /></text>
    <g
       id="layer3"
       inkscape:label="Layer"
       style="display:inline"
       transform="matrix(1,0,0,0.88041749,-1.7856624,8.6822441)">
      <path
         style="fill:#000000;fill-opacity:0.75;fill-rule:nonzero;stroke:#000000;stroke-width:1.27890098;stroke-miterlimit:4;stroke-dasharray:none"
         id="path1918"
         d="m 27.390931,9.5161502 c -0.207701,-0.02489 -0.419557,-0.01414 -0.627675,-0.01748 -1.609606,-0.04104 -3.215422,-0.03902 -4.825253,0.01683 -3.14072,0.1277583 -6.345204,0.2321089 -9.437458,1.1069908 -0.106047,0.03499 -0.759953,0.150097 -0.817326,0.363973 -0.03296,0.122852 0.194077,-0.121565 0.211621,-0.250947 0.01951,-0.143571 -0.20299,-0.421764 -0.101801,-0.413624 1.008199,0.0814 2.093497,0.550266 3.10011,0.750417 4.836974,0.92783 9.756153,1.351411 14.556655,2.620607 5.630252,1.874292 -2.609506,3.545206 -3.71902,3.686556 -3.555661,0.387589 -7.296319,0.12305 -10.803801,1.121858 -0.05623,0.02489 0.0051,-0.653604 0.469481,-0.324076 0.915724,0.649769 1.864866,1.205416 2.797802,1.800893 0.749678,0.485543 3.708357,1.817376 3.355217,3.559266 -0.773396,1.404559 -2.767636,1.248139 -3.883838,1.332504 -1.416062,0.08833 -2.833061,0.09447 -4.250165,0.104959 -0.598401,0.0081 -1.199157,0.0094 -1.794479,0.107371 -0.483348,0.08503 -0.963277,0.152588 -1.449574,0.19329 -0.517879,0.04306 -1.0354218,0.104003 -1.5514394,0.180573 -0.4516188,0.07676 -0.9006075,0.173914 -1.3545691,0.219529 -0.3599664,0.03094 -0.7192097,0.07569 -1.0796309,0.09539 -0.3279701,0.0148 -0.6558417,0.01146 -0.9838856,0.0068 -0.274981,-0.0068 -0.5496889,-0.01816 -0.8236461,0.02556 L 4.1713245,24.581533 c 0.3533554,-0.04777 0.7048972,-0.04575 1.0593172,-0.03902 0.292832,0.0068 0.5855758,0.0094 0.8783464,0 0.3393995,-0.01683 0.6778099,-0.05787 1.0168818,-0.08357 0.4319096,-0.0397 0.8589936,-0.136777 1.2888784,-0.204727 0.5434772,-0.07574 1.0880217,-0.138049 1.6329957,-0.186224 0.452671,-0.04036 0.898968,-0.112957 1.349219,-0.188513 0.672863,-0.101465 1.350096,-0.09002 2.025701,-0.08174 1.378726,0.02356 2.756941,0.04306 4.134693,-0.05247 0.732566,-0.06392 1.476964,-0.128634 2.196583,-0.349776 0.05325,-0.01615 0.519843,-0.240183 0.529318,-0.175259 0.131383,0.355428 -0.384615,-0.596688 -0.621313,-0.810093 -0.674068,-0.607789 -1.405542,-1.080079 -2.127152,-1.554992 -0.395891,-0.253298 -5.743852,-2.797947 -2.89269,-3.473013 3.625701,-0.577985 7.303249,-0.43771 10.93962,-0.90112 0.665133,-0.101126 6.541458,-0.557531 3.532451,-1.824037 -4.695187,-1.551426 -9.629823,-1.933834 -14.411337,-2.652092 -0.899959,-0.13361 -7.1637767,-1.237576 -2.517984,-2.4386878 3.199928,-0.7140223 6.465018,-0.8575936 9.695429,-1.0611102 1.627523,-0.099767 3.254282,-0.1844744 4.882973,-0.2262541 0.208118,0 0.419974,0.00735 0.627673,-0.017487 l 0,1.2599143 z"
         inkscape:connector-curvature="0" />
      <path
         style="fill:#000000;fill-opacity:0.06666667;fill-rule:evenodd;stroke:none"
         id="path1919"
         d="m 6.5969701,25.372076 c 0.086402,-0.05323 0.4127724,-0.254325 0.6160585,-0.379618 0.1796842,-0.110718 0.3593682,-0.221369 0.5390522,-0.332086 0.194778,-0.120027 0.402208,-0.199822 0.583741,-0.311679 0.166731,-0.102728 0.461715,-0.188541 0.628441,-0.291272 0.169093,-0.104193 0.532374,-0.13613 0.71783,-0.250395 0.109271,-0.06731 0.6290912,-0.246847 0.8010282,-0.253628 0.122759,-0.07567 0.486943,-0.219088 0.679324,-0.226694 0.199916,-0.123143 0.564999,-0.156156 0.756331,-0.274034 0.211003,-0.130041 0.683579,-0.133341 0.884225,-0.256986 0.0436,0.01964 0.72541,-0.159071 0.807218,-0.209518 0.317167,-0.01265 0.500645,-0.219595 0.84572,-0.233221 0.128057,-0.0789 0.609235,-0.20166 0.80722,-0.209455 0.184676,-0.113822 0.649238,-0.112171 0.845719,-0.23322 0.08969,-0.05513 0.592864,-0.224856 0.640823,-0.202928 0.197158,-0.121492 0.45846,-0.09062 0.640819,-0.202927 0.176629,-0.108881 0.337479,-0.111984 0.551436,-0.243805 0.0551,-0.03422 0.54879,-0.203688 0.602313,-0.179224 0.159718,-0.09843 0.462441,-0.188986 0.589936,-0.267508 0.189091,-0.116551 0.38658,-0.190252 0.583745,-0.311679 0.174807,-0.0069 0.542843,-0.190569 0.634632,-0.247099 0.178707,-0.0069 0.535918,-0.138285 0.64082,-0.202927 0.195878,-0.0076 0.593085,-0.173522 0.71783,-0.250397 0.177587,-0.0069 0.55438,-0.197667 0.673134,-0.270802 0.301944,-0.01199 0.444294,-0.239557 0.801027,-0.253689 0.207902,-0.128084 0.558197,-0.151975 0.756331,-0.274099 0.188546,-0.116165 0.599501,-0.0815 0.807218,-0.209455 0.358878,-0.01394 0.632337,-0.113821 0.985997,-0.127764 0.135868,-0.08371 0.663373,-0.07288 0.774905,-0.141644 0.166982,-0.0064 0.599086,-0.177196 0.679324,-0.226629 0.277476,-0.01079 0.530658,-0.08759 0.864294,-0.100771 0.04566,-0.02789 0.791841,-0.05134 0.876676,-0.01265 0.160344,-0.0064 0.703541,0.142215 0.728854,0.126619 0.2908,0.132958 -0.0256,0.277583 0.132729,0.35002 -0.195428,0.120414 -0.232894,0.239431 -0.41116,0.349262 -0.09395,0.05768 -0.18553,0.210278 -0.372652,0.325558 -0.103894,0.06402 -0.291756,0.227706 -0.45585,0.328854 -0.190281,0.117177 -0.411411,0.205462 -0.583749,0.311679 -0.129563,0.07978 -0.461384,0.09234 -0.640819,0.202927 -0.17719,0.0069 -0.599431,0.177387 -0.717831,0.250331 -0.132975,0.0064 -0.5834,0.167564 -0.679321,0.226694 -0.179126,0.110332 -0.538707,0.139996 -0.717829,0.250332 -0.145451,0.08961 -0.618345,0.224284 -0.845725,0.23322 -0.192495,0.118642 -0.551168,0.09976 -0.724016,0.206224 -0.175177,0.0069 -0.695302,0.140566 -0.807219,0.209518 -0.140453,0.08651 -0.533391,0.136764 -0.717825,0.250395 -0.277927,0.06147 -0.635071,0.224855 -0.928922,0.236517 -0.180935,0.111478 -0.621573,0.09506 -0.807219,0.209454 -0.201291,0.0083 -0.450371,0.229546 -0.583744,0.311679 -0.140848,0.08683 -0.465332,0 -0.653202,0.114647 -0.185986,0.114581 -0.469326,0.145257 -0.673134,0.270802 -0.185438,0.114261 -0.451043,0.181951 -0.628441,0.291274 -0.184747,0.113821 -0.528386,0.133657 -0.717829,0.250331 -0.156467,0.0064 -0.61204,0.185182 -0.679325,0.226693 -0.186994,0.11522 -0.56808,0.110079 -0.762523,0.229925 -0.261673,0.01012 -0.470054,0.173966 -0.768712,0.185753 -0.199833,0.123143 -0.645535,0.157867 -0.762523,0.229925 -0.08517,0.0526 -0.699291,0.217567 -0.768714,0.185816 -0.199451,0.122891 -0.572466,0.11281 -0.762522,0.229926 -0.08903,-0.04056 -0.608407,0.179414 -0.768717,0.185752 -0.177182,0.1092 -0.533499,0.136827 -0.717827,0.250395 -0.14606,0.09 -0.578383,0.204259 -0.801027,0.253628 -0.117475,-0.05387 -0.5804412,0.189238 -0.6917062,0.138348 -0.169982,0.104766 -0.48472,0.10679 -0.640821,0.202927 -0.325846,0.01265 -0.434583,0.105965 -0.819601,0.121173 -0.0613,0.03802 -0.635893,0.03992 -0.754978,-0.01458 C 7.2796298,26.006657 6.8686921,25.785354 6.7296974,25.72179 6.399526,25.57083 6.2780653,25.568294 6.5969701,25.371832 z"
         inkscape:connector-curvature="0" />
    </g>
    <g
       id="g3068">
      <path
         transform="translate(99.978966,14.577555)"
         d="m -79.916445,-7.8369532 c 0,2.2436682 -1.818853,4.0625205 -4.062521,4.0625205 -2.243668,0 -4.06252,-1.8188523 -4.06252,-4.0625205 0,-2.2436678 1.818852,-4.0625208 4.06252,-4.0625208 2.243668,0 4.062521,1.818853 4.062521,4.0625208 z"
         sodipodi:ry="4.0625205"
         sodipodi:rx="4.0625205"
         sodipodi:cy="-7.8369532"
         sodipodi:cx="-83.978966"
         id="path3385"
         style="fill:#000000;stroke:#000000;stroke-width:1;stroke-linecap:butt;stroke-miterlimit:4;stroke-opacity:1;stroke-dasharray:none;stroke-dashoffset:0"
         sodipodi:type="arc" />
      <path
         sodipodi:nodetypes="cscc"
         inkscape:connector-curvature="0"
         id="path4203"
         d="m 30.25,6.8414238 c 0,3.3487572 -6.379943,6.0634602 -14.25,6.0634602 -7.870058,0 -14.2499998,-2.714703 -14.2499998,-6.0634602 l 0,0"
         style="fill:none;stroke:#aa0000;stroke-width:3.50000024;stroke-linecap:butt;stroke-miterlimit:4;stroke-opacity:1;stroke-dashoffset:0" />
      <path
         style="fill:none;stroke:#aa0000;stroke-width:3.50000024;stroke-linecap:butt;stroke-miterlimit:4;stroke-opacity:1;stroke-dashoffset:0"
         d="m 30.25,7.8134621 c 0,-3.348758 -6.379942,-6.063462 -14.25,-6.063462 -7.8700582,0 -14.2499997,2.714704 -14.2499997,6.063462 l 0,0"
         id="path4209"
         inkscape:connector-curvature="0"
         sodipodi:nodetypes="cscc" />
    </g>
  </g>
</svg>
